<?xml version="1.0" encoding="UTF-8"?>
<svg xmlns="http://www.w3.org/2000/svg" xmlns:xlink="http://www.w3.org/1999/xlink" width="3000px" height="1468px" viewBox="0 0 2999 1468" version="1.1">
<defs>
<filter id="alpha" filterUnits="objectBoundingBox" x="0%" y="0%" width="100%" height="100%">
  <feColorMatrix type="matrix" in="SourceGraphic" values="0 0 0 0 1 0 0 0 0 1 0 0 0 0 1 0 0 0 1 0"/>
</filter>
<mask id="mask0">
  <g filter="url(#alpha)">
<rect x="0" y="0" width="2999" height="1468" style="fill:rgb(0%,0%,0%);fill-opacity:0.890196;stroke:none;"/>
  </g>
</mask>
<clipPath id="clip1">
  <rect x="0" y="0" width="2999" height="1468"/>
</clipPath>
<g id="surface5" clip-path="url(#clip1)">
<path style=" stroke:none;fill-rule:evenodd;fill:rgb(3.529412%,3.529412%,3.529412%);fill-opacity:1;" d="M 819.988281 1116.785156 C 814.007812 1110.671875 811.640625 1103.308594 812.886719 1094.6875 C 827.324219 1042.199219 841.265625 989.585938 854.714844 936.835938 C 856.820312 928.417969 858.925781 920 861.027344 911.582031 C 866.710938 895.179688 871.449219 878.34375 875.234375 861.070312 C 876.011719 857.429688 876.539062 853.746094 876.8125 850.019531 C 879.859375 844.863281 882.226562 839.074219 883.914062 832.65625 C 898.066406 776.316406 913.058594 720.28125 928.902344 664.546875 C 928.023438 663.941406 927.496094 663.152344 927.324219 662.179688 C 965.691406 520.289062 1004.097656 378.226562 1042.546875 235.984375 C 992.046875 234.671875 941.535156 233.878906 891.019531 233.617188 C 887.730469 232.515625 885.097656 230.675781 883.125 228.09375 C 881.6875 222.359375 881.421875 216.574219 882.335938 210.730469 C 887.113281 193.941406 891.585938 177.105469 895.753906 160.21875 C 900.933594 153.402344 907.773438 148.929688 916.273438 146.800781 C 1025.183594 145.746094 1134.09375 145.746094 1243.007812 146.800781 C 1264.640625 152.410156 1273.320312 166.355469 1269.050781 188.628906 C 1188.90625 491.410156 1107.882812 794.480469 1025.972656 1097.84375 C 1022.027344 1106 1015.976562 1112.050781 1007.820312 1115.996094 C 949.929688 1116.308594 892.054688 1117.097656 834.195312 1118.363281 C 829.433594 1117.941406 824.699219 1117.414062 819.988281 1116.785156 Z M 819.988281 1116.785156 "/>
</g>
<mask id="mask1">
  <g filter="url(#alpha)">
<rect x="0" y="0" width="2999" height="1468" style="fill:rgb(0%,0%,0%);fill-opacity:0.866667;stroke:none;"/>
  </g>
</mask>
<clipPath id="clip2">
  <rect x="0" y="0" width="2999" height="1468"/>
</clipPath>
<g id="surface8" clip-path="url(#clip2)">
<path style=" stroke:none;fill-rule:evenodd;fill:rgb(2.352941%,2.352941%,2.745098%);fill-opacity:1;" d="M 1525.542969 146.011719 C 1646.070312 145.257812 1766.554688 146.050781 1887.003906 148.378906 C 1940.164062 161.035156 1966.996094 194.710938 1967.5 249.402344 C 1967.484375 258.683594 1966.695312 267.890625 1965.132812 277.027344 C 1901.160156 517.6875 1836.445312 758.148438 1770.988281 998.398438 C 1742.039062 1062.074219 1693.378906 1101.273438 1624.984375 1115.996094 C 1501.867188 1117.046875 1378.75 1117.046875 1255.632812 1115.996094 C 1210.476562 1107.671875 1182.855469 1081.097656 1172.765625 1036.28125 C 1170.550781 1020.113281 1171.078125 1003.800781 1174.34375 987.347656 C 1185.640625 945.851562 1196.6875 904.285156 1207.492188 862.648438 C 1211.0625 852.234375 1218.167969 845.65625 1228.800781 842.917969 C 1289.832031 841.863281 1350.863281 841.863281 1411.898438 842.917969 C 1415.746094 844.136719 1418.640625 846.503906 1420.578125 850.019531 C 1421.632812 855.808594 1421.632812 861.59375 1420.578125 867.382812 C 1408.648438 910.640625 1397.335938 954.050781 1386.644531 997.609375 C 1388.65625 1011.703125 1396.023438 1021.699219 1408.742188 1027.601562 C 1445.042969 1028.652344 1481.347656 1028.652344 1517.652344 1027.601562 C 1540.125 1020.382812 1554.59375 1005.390625 1561.058594 982.613281 C 1588.648438 880.632812 1615.75 778.558594 1642.347656 676.386719 C 1554.480469 676.648438 1466.613281 676.386719 1378.75 675.59375 C 1322.695312 665.308594 1292.707031 631.632812 1288.78125 574.570312 C 1289.890625 562.667969 1291.46875 550.828125 1293.515625 539.054688 C 1317.410156 452.945312 1340.824219 366.65625 1363.753906 280.183594 C 1384.539062 221.511719 1423.738281 180.207031 1481.347656 156.269531 C 1495.949219 151.304688 1510.679688 147.886719 1525.542969 146.011719 Z M 1628.140625 234.40625 C 1660.246094 234.144531 1692.335938 234.40625 1724.425781 235.195312 C 1738 237.195312 1746.679688 244.824219 1750.46875 258.082031 C 1751.683594 266.613281 1751.164062 275.035156 1748.890625 283.339844 C 1721.046875 384.722656 1693.945312 486.273438 1667.601562 587.988281 C 1620.707031 588.714844 1573.882812 587.925781 1527.121094 585.621094 C 1513.425781 580.109375 1506.058594 569.847656 1505.023438 554.839844 C 1529.738281 459.914062 1555.257812 365.203125 1581.578125 270.710938 C 1591.457031 251.0625 1606.992188 238.957031 1628.140625 234.40625 Z M 1628.140625 234.40625 "/>
</g>
<mask id="mask2">
  <g filter="url(#alpha)">
<rect x="0" y="0" width="2999" height="1468" style="fill:rgb(0%,0%,0%);fill-opacity:0.866667;stroke:none;"/>
  </g>
</mask>
<clipPath id="clip3">
  <rect x="0" y="0" width="2999" height="1468"/>
</clipPath>
<g id="surface11" clip-path="url(#clip3)">
<path style=" stroke:none;fill-rule:evenodd;fill:rgb(2.745098%,3.137255%,3.137255%);fill-opacity:1;" d="M 2276.871094 146.011719 C 2371.578125 145.746094 2466.28125 146.011719 2560.988281 146.800781 C 2634.984375 155.550781 2674.445312 197.121094 2679.371094 271.5 C 2679.148438 286.171875 2677.316406 300.644531 2673.84375 314.910156 C 2616.769531 526.886719 2559.945312 738.929688 2503.375 951.042969 C 2479.382812 1021.34375 2433.355469 1071.589844 2365.265625 1101.789062 C 2348.515625 1108.738281 2331.152344 1113.476562 2313.175781 1115.996094 C 2210.578125 1117.046875 2107.980469 1117.046875 2005.382812 1115.996094 C 1946.082031 1106.152344 1910.566406 1071.6875 1898.839844 1012.605469 C 1896.410156 987.460938 1898.507812 962.734375 1905.152344 938.414062 C 1962.578125 722.394531 2020.980469 506.664062 2080.359375 291.230469 C 2112.96875 222.855469 2165.308594 176.816406 2237.410156 153.113281 C 2250.671875 150.03125 2263.820312 147.664062 2276.871094 146.011719 Z M 2360.527344 235.984375 C 2383.683594 235.722656 2406.839844 235.984375 2429.980469 236.773438 C 2448.242188 241.890625 2459.558594 253.730469 2463.914062 272.289062 C 2464.972656 279.65625 2464.972656 287.023438 2463.914062 294.390625 C 2403.933594 518.535156 2343.957031 742.683594 2283.976562 966.828125 C 2271.269531 999.523438 2247.859375 1019.785156 2213.734375 1027.601562 C 2189.980469 1029.074219 2166.304688 1028.546875 2142.707031 1026.023438 C 2122.644531 1017.242188 2112.117188 1001.71875 2111.136719 979.457031 C 2169.855469 754.027344 2229.582031 528.828125 2290.289062 303.859375 C 2301.636719 268.566406 2325.046875 245.941406 2360.527344 235.984375 Z M 2360.527344 235.984375 "/>
</g>
<mask id="mask3">
  <g filter="url(#alpha)">
<rect x="0" y="0" width="2999" height="1468" style="fill:rgb(0%,0%,0%);fill-opacity:0.956863;stroke:none;"/>
  </g>
</mask>
<clipPath id="clip4">
  <rect x="0" y="0" width="2999" height="1468"/>
</clipPath>
<g id="surface14" clip-path="url(#clip4)">
<path style=" stroke:none;fill-rule:evenodd;fill:rgb(34.509805%,34.117648%,36.470589%);fill-opacity:1;" d="M 895.753906 160.21875 C 891.585938 177.105469 887.113281 193.941406 882.335938 210.730469 C 881.421875 216.574219 881.6875 222.359375 883.125 228.09375 C 873.449219 229.195312 863.976562 231.300781 854.714844 234.40625 C 852.257812 207.925781 841.734375 185.296875 823.148438 166.53125 C 847.089844 161.816406 871.292969 159.710938 895.753906 160.21875 Z M 895.753906 160.21875 "/>
</g>
<mask id="mask4">
  <g filter="url(#alpha)">
<rect x="0" y="0" width="2999" height="1468" style="fill:rgb(0%,0%,0%);fill-opacity:0.956863;stroke:none;"/>
  </g>
</mask>
<clipPath id="clip5">
  <rect x="0" y="0" width="2999" height="1468"/>
</clipPath>
<g id="surface17" clip-path="url(#clip5)">
<path style=" stroke:none;fill-rule:evenodd;fill:rgb(34.509805%,34.117648%,36.470589%);fill-opacity:1;" d="M 799.46875 169.6875 C 804.882812 169.761719 809.617188 171.601562 813.675781 175.214844 C 832.210938 191.878906 840.890625 212.664062 839.71875 237.5625 C 820.792969 244.789062 802.113281 252.683594 783.6875 261.242188 C 777.308594 230.804688 760.472656 208.441406 733.175781 194.15625 C 754.929688 184.574219 777.027344 176.417969 799.46875 169.6875 Z M 799.46875 169.6875 "/>
</g>
<mask id="mask5">
  <g filter="url(#alpha)">
<rect x="0" y="0" width="2999" height="1468" style="fill:rgb(0%,0%,0%);fill-opacity:0.956863;stroke:none;"/>
  </g>
</mask>
<clipPath id="clip6">
  <rect x="0" y="0" width="2999" height="1468"/>
</clipPath>
<g id="surface20" clip-path="url(#clip6)">
<path style=" stroke:none;fill-rule:evenodd;fill:rgb(34.509805%,34.509805%,36.470589%);fill-opacity:1;" d="M 712.65625 202.835938 C 738.632812 207.5 756.257812 222.234375 765.535156 247.035156 C 767.625 253.820312 769.46875 260.664062 771.058594 267.554688 C 751.03125 278.617188 732.089844 291.246094 714.234375 305.4375 C 699.347656 271.890625 673.570312 253.210938 636.894531 249.402344 C 660.332031 230.96875 685.585938 215.445312 712.65625 202.835938 Z M 712.65625 202.835938 "/>
</g>
<mask id="mask6">
  <g filter="url(#alpha)">
<rect x="0" y="0" width="2999" height="1468" style="fill:rgb(0%,0%,0%);fill-opacity:0.882353;stroke:none;"/>
  </g>
</mask>
<clipPath id="clip7">
  <rect x="0" y="0" width="2999" height="1468"/>
</clipPath>
<g id="surface23" clip-path="url(#clip7)">
<path style=" stroke:none;fill-rule:evenodd;fill:rgb(2.352941%,2.352941%,2.352941%);fill-opacity:1;" d="M 1621.828125 228.09375 C 1657.089844 227.828125 1692.335938 228.09375 1727.582031 228.882812 C 1747.089844 233.363281 1757.621094 245.730469 1759.148438 265.976562 C 1731.308594 374.523438 1702.628906 482.914062 1673.125 591.144531 C 1672.335938 591.933594 1671.546875 592.726562 1670.757812 593.515625 C 1622.886719 594.566406 1575 594.566406 1527.121094 593.515625 C 1509.347656 587.292969 1499.878906 574.664062 1498.710938 555.628906 C 1499.210938 547.863281 1500.527344 540.234375 1502.65625 532.742188 C 1526.65625 443.789062 1550.859375 354.867188 1575.265625 265.976562 C 1586.011719 247.105469 1601.527344 234.476562 1621.828125 228.09375 Z M 1628.140625 234.40625 C 1606.992188 238.957031 1591.457031 251.0625 1581.578125 270.710938 C 1555.257812 365.203125 1529.738281 459.914062 1505.023438 554.839844 C 1506.058594 569.847656 1513.425781 580.109375 1527.121094 585.621094 C 1573.882812 587.925781 1620.707031 588.714844 1667.601562 587.988281 C 1693.945312 486.273438 1721.046875 384.722656 1748.890625 283.339844 C 1751.164062 275.035156 1751.683594 266.613281 1750.46875 258.082031 C 1746.679688 244.824219 1738 237.195312 1724.425781 235.195312 C 1692.335938 234.40625 1660.246094 234.144531 1628.140625 234.40625 Z M 1628.140625 234.40625 "/>
</g>
<mask id="mask7">
  <g filter="url(#alpha)">
<rect x="0" y="0" width="2999" height="1468" style="fill:rgb(0%,0%,0%);fill-opacity:0.858824;stroke:none;"/>
  </g>
</mask>
<clipPath id="clip8">
  <rect x="0" y="0" width="2999" height="1468"/>
</clipPath>
<g id="surface26" clip-path="url(#clip8)">
<path style=" stroke:none;fill-rule:evenodd;fill:rgb(2.745098%,2.745098%,2.745098%);fill-opacity:1;" d="M 2362.105469 228.09375 C 2382.625 227.828125 2403.144531 228.09375 2423.664062 228.882812 C 2450.894531 231.910156 2466.945312 246.90625 2471.808594 273.867188 C 2472.863281 279.65625 2472.863281 285.445312 2471.808594 291.230469 C 2410.894531 520.269531 2349.335938 749.152344 2287.132812 977.878906 C 2272.816406 1006.921875 2249.929688 1025.601562 2218.472656 1033.914062 C 2191.574219 1035.378906 2164.742188 1034.851562 2137.972656 1032.335938 C 2119.519531 1023.839844 2108.722656 1009.371094 2105.613281 988.925781 C 2104.554688 981.035156 2104.554688 973.140625 2105.613281 965.25 C 2165.074219 743.207031 2224.515625 521.167969 2283.976562 299.125 C 2293.035156 272.699219 2309.609375 252.441406 2333.695312 238.351562 C 2343.054688 234.09375 2352.527344 230.675781 2362.105469 228.09375 Z M 2360.527344 235.984375 C 2325.046875 245.941406 2301.636719 268.566406 2290.289062 303.859375 C 2229.582031 528.828125 2169.855469 754.027344 2111.136719 979.457031 C 2112.117188 1001.71875 2122.644531 1017.242188 2142.707031 1026.023438 C 2166.304688 1028.546875 2189.980469 1029.074219 2213.734375 1027.601562 C 2247.859375 1019.785156 2271.269531 999.523438 2283.976562 966.828125 C 2343.957031 742.683594 2403.933594 518.535156 2463.914062 294.390625 C 2464.972656 287.023438 2464.972656 279.65625 2463.914062 272.289062 C 2459.558594 253.730469 2448.242188 241.890625 2429.980469 236.773438 C 2406.839844 235.984375 2383.683594 235.722656 2360.527344 235.984375 Z M 2360.527344 235.984375 "/>
</g>
<mask id="mask8">
  <g filter="url(#alpha)">
<rect x="0" y="0" width="2999" height="1468" style="fill:rgb(0%,0%,0%);fill-opacity:0.886275;stroke:none;"/>
  </g>
</mask>
<clipPath id="clip9">
  <rect x="0" y="0" width="2999" height="1468"/>
</clipPath>
<g id="surface29" clip-path="url(#clip9)">
<path style=" stroke:none;fill-rule:evenodd;fill:rgb(33.725491%,33.725491%,35.686275%);fill-opacity:1;" d="M 630.578125 232.828125 C 632.238281 232.59375 633.816406 232.855469 635.316406 233.617188 C 617.261719 248.507812 600.164062 264.558594 584.015625 281.761719 C 575.664062 276.402344 566.980469 271.664062 557.972656 267.554688 C 579.050781 249.121094 603.253906 237.542969 630.578125 232.828125 Z M 630.578125 232.828125 "/>
</g>
<mask id="mask9">
  <g filter="url(#alpha)">
<rect x="0" y="0" width="2999" height="1468" style="fill:rgb(0%,0%,0%);fill-opacity:0.129412;stroke:none;"/>
  </g>
</mask>
<clipPath id="clip10">
  <rect x="0" y="0" width="2999" height="1468"/>
</clipPath>
<g id="surface32" clip-path="url(#clip10)">
<path style=" stroke:none;fill-rule:evenodd;fill:rgb(43.529412%,43.529412%,43.529412%);fill-opacity:1;" d="M 979.410156 245.457031 C 985.953125 243.644531 992.796875 243.382812 999.929688 244.667969 C 993.109375 245.453125 986.269531 245.71875 979.410156 245.457031 Z M 979.410156 245.457031 "/>
</g>
<mask id="mask10">
  <g filter="url(#alpha)">
<rect x="0" y="0" width="2999" height="1468" style="fill:rgb(0%,0%,0%);fill-opacity:0.0862745;stroke:none;"/>
  </g>
</mask>
<clipPath id="clip11">
  <rect x="0" y="0" width="2999" height="1468"/>
</clipPath>
<g id="surface35" clip-path="url(#clip11)">
<path style=" stroke:none;fill-rule:evenodd;fill:rgb(60.392159%,60.392159%,60.392159%);fill-opacity:1;" d="M 966.78125 247.035156 C 969.066406 245.277344 971.695312 245.015625 974.675781 246.246094 C 972.097656 247.023438 969.464844 247.285156 966.78125 247.035156 Z M 966.78125 247.035156 "/>
</g>
<mask id="mask11">
  <g filter="url(#alpha)">
<rect x="0" y="0" width="2999" height="1468" style="fill:rgb(0%,0%,0%);fill-opacity:0.00784314;stroke:none;"/>
  </g>
</mask>
<clipPath id="clip12">
  <rect x="0" y="0" width="2999" height="1468"/>
</clipPath>
<g id="surface38" clip-path="url(#clip12)">
<path style=" stroke:none;fill-rule:evenodd;fill:rgb(29.411766%,29.411766%,29.411766%);fill-opacity:1;" d="M 1015.714844 247.035156 C 1016.898438 245.339844 1018.476562 245.078125 1020.449219 246.246094 C 1018.953125 247.007812 1017.375 247.269531 1015.714844 247.035156 Z M 1015.714844 247.035156 "/>
</g>
<mask id="mask12">
  <g filter="url(#alpha)">
<rect x="0" y="0" width="2999" height="1468" style="fill:rgb(0%,0%,0%);fill-opacity:0.00392157;stroke:none;"/>
  </g>
</mask>
<clipPath id="clip13">
  <rect x="0" y="0" width="2999" height="1468"/>
</clipPath>
<g id="surface41" clip-path="url(#clip13)">
<path style=" stroke:none;fill-rule:evenodd;fill:rgb(66.666669%,66.666669%,66.666669%);fill-opacity:1;" d="M 960.46875 248.613281 C 961.097656 246.996094 962.148438 246.730469 963.625 247.824219 C 962.6875 248.554688 961.636719 248.820312 960.46875 248.613281 Z M 960.46875 248.613281 "/>
</g>
<mask id="mask13">
  <g filter="url(#alpha)">
<rect x="0" y="0" width="2999" height="1468" style="fill:rgb(0%,0%,0%);fill-opacity:0.0235294;stroke:none;"/>
  </g>
</mask>
<clipPath id="clip14">
  <rect x="0" y="0" width="2999" height="1468"/>
</clipPath>
<g id="surface44" clip-path="url(#clip14)">
<path style=" stroke:none;fill-rule:evenodd;fill:rgb(34.117648%,34.117648%,34.117648%);fill-opacity:1;" d="M 1023.605469 248.613281 C 1025.34375 246.878906 1027.449219 246.617188 1029.917969 247.824219 C 1027.878906 248.597656 1025.773438 248.859375 1023.605469 248.613281 Z M 1023.605469 248.613281 "/>
</g>
<mask id="mask14">
  <g filter="url(#alpha)">
<rect x="0" y="0" width="2999" height="1468" style="fill:rgb(0%,0%,0%);fill-opacity:0.14902;stroke:none;"/>
  </g>
</mask>
<clipPath id="clip15">
  <rect x="0" y="0" width="2999" height="1468"/>
</clipPath>
<g id="surface47" clip-path="url(#clip15)">
<path style=" stroke:none;fill-rule:evenodd;fill:rgb(54.11765%,54.11765%,54.11765%);fill-opacity:1;" d="M 1031.5 250.191406 C 1032.683594 248.496094 1034.261719 248.234375 1036.234375 249.402344 C 1034.738281 250.164062 1033.160156 250.425781 1031.5 250.191406 Z M 1031.5 250.191406 "/>
</g>
<mask id="mask15">
  <g filter="url(#alpha)">
<rect x="0" y="0" width="2999" height="1468" style="fill:rgb(0%,0%,0%);fill-opacity:0.956863;stroke:none;"/>
  </g>
</mask>
<clipPath id="clip16">
  <rect x="0" y="0" width="2999" height="1468"/>
</clipPath>
<g id="surface50" clip-path="url(#clip16)">
<path style=" stroke:none;fill-rule:evenodd;fill:rgb(34.509805%,34.117648%,36.470589%);fill-opacity:1;" d="M 621.109375 261.242188 C 661.765625 259.433594 689.125 277.324219 703.1875 314.910156 C 686.3125 329.941406 670.792969 346.253906 656.625 363.84375 C 639.460938 327.242188 610.785156 311.71875 570.597656 317.277344 C 586.011719 297.386719 602.847656 278.710938 621.109375 261.242188 Z M 621.109375 261.242188 "/>
</g>
<mask id="mask16">
  <g filter="url(#alpha)">
<rect x="0" y="0" width="2999" height="1468" style="fill:rgb(0%,0%,0%);fill-opacity:0.0666667;stroke:none;"/>
  </g>
</mask>
<clipPath id="clip17">
  <rect x="0" y="0" width="2999" height="1468"/>
</clipPath>
<g id="surface53" clip-path="url(#clip17)">
<path style=" stroke:none;fill-rule:evenodd;fill:rgb(55.686277%,56.078434%,55.686277%);fill-opacity:1;" d="M 1022.027344 277.027344 C 1024.132812 278.078125 1024.132812 278.078125 1022.027344 277.027344 Z M 1022.027344 277.027344 "/>
</g>
<mask id="mask17">
  <g filter="url(#alpha)">
<rect x="0" y="0" width="2999" height="1468" style="fill:rgb(0%,0%,0%);fill-opacity:0.137255;stroke:none;"/>
  </g>
</mask>
<clipPath id="clip18">
  <rect x="0" y="0" width="2999" height="1468"/>
</clipPath>
<g id="surface56" clip-path="url(#clip18)">
<path style=" stroke:none;fill-rule:evenodd;fill:rgb(51.764709%,51.764709%,51.764709%);fill-opacity:1;" d="M 1025.183594 280.183594 C 1025.8125 278.566406 1026.863281 278.300781 1028.339844 279.394531 C 1027.402344 280.125 1026.351562 280.390625 1025.183594 280.183594 Z M 1025.183594 280.183594 "/>
</g>
<mask id="mask18">
  <g filter="url(#alpha)">
<rect x="0" y="0" width="2999" height="1468" style="fill:rgb(0%,0%,0%);fill-opacity:0.929412;stroke:none;"/>
  </g>
</mask>
<clipPath id="clip19">
  <rect x="0" y="0" width="2999" height="1468"/>
</clipPath>
<g id="surface59" clip-path="url(#clip19)">
<path style=" stroke:none;fill-rule:evenodd;fill:rgb(34.117648%,33.725491%,36.078432%);fill-opacity:1;" d="M 542.1875 280.183594 C 554.820312 279.261719 565.871094 282.945312 575.335938 291.230469 C 561 308.710938 547.320312 326.601562 534.296875 344.902344 C 529.761719 342.886719 525.027344 341.574219 520.089844 340.953125 C 510.09375 340.429688 500.097656 339.902344 490.101562 339.375 C 505.441406 317.976562 522.804688 298.242188 542.1875 280.183594 Z M 542.1875 280.183594 "/>
</g>
<mask id="mask19">
  <g filter="url(#alpha)">
<rect x="0" y="0" width="2999" height="1468" style="fill:rgb(0%,0%,0%);fill-opacity:0.929412;stroke:none;"/>
  </g>
</mask>
<clipPath id="clip20">
  <rect x="0" y="0" width="2999" height="1468"/>
</clipPath>
<g id="surface62" clip-path="url(#clip20)">
<path style=" stroke:none;fill-rule:evenodd;fill:rgb(34.117648%,34.117648%,36.078432%);fill-opacity:1;" d="M 723.707031 313.332031 C 733.738281 332.441406 737.683594 352.960938 735.542969 374.890625 C 732.296875 389.558594 723.089844 396.394531 707.921875 395.414062 C 709.074219 375.757812 705.390625 357.078125 696.871094 339.375 C 705.550781 330.4375 714.492188 321.753906 723.707031 313.332031 Z M 723.707031 313.332031 "/>
</g>
<mask id="mask20">
  <g filter="url(#alpha)">
<rect x="0" y="0" width="2999" height="1468" style="fill:rgb(0%,0%,0%);fill-opacity:0.960784;stroke:none;"/>
  </g>
</mask>
<clipPath id="clip21">
  <rect x="0" y="0" width="2999" height="1468"/>
</clipPath>
<g id="surface65" clip-path="url(#clip21)">
<path style=" stroke:none;fill-rule:evenodd;fill:rgb(34.901962%,34.509805%,36.862746%);fill-opacity:1;" d="M 573.757812 329.117188 C 610.621094 325.175781 634.824219 340.695312 646.363281 375.683594 C 640.550781 385.976562 634.5 396.234375 628.210938 406.460938 C 593.847656 407.613281 559.386719 408.664062 524.824219 409.621094 C 521.667969 409.09375 518.511719 408.566406 515.355469 408.039062 C 526.507812 382.976562 539.925781 359.300781 555.605469 337.007812 C 561.480469 333.574219 567.53125 330.941406 573.757812 329.117188 Z M 573.757812 329.117188 "/>
</g>
<mask id="mask21">
  <g filter="url(#alpha)">
<rect x="0" y="0" width="2999" height="1468" style="fill:rgb(0%,0%,0%);fill-opacity:0.00784314;stroke:none;"/>
  </g>
</mask>
<clipPath id="clip22">
  <rect x="0" y="0" width="2999" height="1468"/>
</clipPath>
<g id="surface68" clip-path="url(#clip22)">
<path style=" stroke:none;fill-rule:evenodd;fill:rgb(81.176472%,81.568629%,81.176472%);fill-opacity:1;" d="M 1265.105469 338.585938 C 1264.050781 336.484375 1264.050781 336.484375 1265.105469 338.585938 Z M 1265.105469 338.585938 "/>
</g>
<mask id="mask22">
  <g filter="url(#alpha)">
<rect x="0" y="0" width="2999" height="1468" style="fill:rgb(0%,0%,0%);fill-opacity:0.0509804;stroke:none;"/>
  </g>
</mask>
<clipPath id="clip23">
  <rect x="0" y="0" width="2999" height="1468"/>
</clipPath>
<g id="surface71" clip-path="url(#clip23)">
<path style=" stroke:none;fill-rule:evenodd;fill:rgb(74.901962%,75.294119%,74.901962%);fill-opacity:1;" d="M 1265.105469 338.585938 C 1266.15625 338.585938 1266.683594 339.113281 1266.683594 340.164062 C 1266.15625 339.640625 1265.628906 339.113281 1265.105469 338.585938 Z M 1265.105469 338.585938 "/>
</g>
<mask id="mask23">
  <g filter="url(#alpha)">
<rect x="0" y="0" width="2999" height="1468" style="fill:rgb(0%,0%,0%);fill-opacity:0.12549;stroke:none;"/>
  </g>
</mask>
<clipPath id="clip24">
  <rect x="0" y="0" width="2999" height="1468"/>
</clipPath>
<g id="surface74" clip-path="url(#clip24)">
<path style=" stroke:none;fill-rule:evenodd;fill:rgb(62.352943%,62.7451%,62.352943%);fill-opacity:1;" d="M 1266.683594 340.164062 C 1267.734375 340.164062 1268.261719 340.691406 1268.261719 341.742188 C 1267.734375 341.21875 1267.207031 340.691406 1266.683594 340.164062 Z M 1266.683594 340.164062 "/>
</g>
<mask id="mask24">
  <g filter="url(#alpha)">
<rect x="0" y="0" width="2999" height="1468" style="fill:rgb(0%,0%,0%);fill-opacity:0.145098;stroke:none;"/>
  </g>
</mask>
<clipPath id="clip25">
  <rect x="0" y="0" width="2999" height="1468"/>
</clipPath>
<g id="surface77" clip-path="url(#clip25)">
<path style=" stroke:none;fill-rule:evenodd;fill:rgb(43.529412%,43.921569%,43.529412%);fill-opacity:1;" d="M 1268.261719 341.742188 C 1269.3125 341.742188 1269.839844 342.269531 1269.839844 343.324219 C 1269.3125 342.796875 1268.785156 342.269531 1268.261719 341.742188 Z M 1268.261719 341.742188 "/>
</g>
<mask id="mask25">
  <g filter="url(#alpha)">
<rect x="0" y="0" width="2999" height="1468" style="fill:rgb(0%,0%,0%);fill-opacity:0.0862745;stroke:none;"/>
  </g>
</mask>
<clipPath id="clip26">
  <rect x="0" y="0" width="2999" height="1468"/>
</clipPath>
<g id="surface80" clip-path="url(#clip26)">
<path style=" stroke:none;fill-rule:evenodd;fill:rgb(70.980394%,70.980394%,70.980394%);fill-opacity:1;" d="M 990.460938 341.742188 C 992.078125 342.371094 992.339844 343.421875 991.25 344.902344 C 990.515625 343.964844 990.253906 342.910156 990.460938 341.742188 Z M 990.460938 341.742188 "/>
</g>
<mask id="mask26">
  <g filter="url(#alpha)">
<rect x="0" y="0" width="2999" height="1468" style="fill:rgb(0%,0%,0%);fill-opacity:0.129412;stroke:none;"/>
  </g>
</mask>
<clipPath id="clip27">
  <rect x="0" y="0" width="2999" height="1468"/>
</clipPath>
<g id="surface83" clip-path="url(#clip27)">
<path style=" stroke:none;fill-rule:evenodd;fill:rgb(36.862746%,37.254903%,36.862746%);fill-opacity:1;" d="M 1269.839844 343.324219 C 1270.890625 343.324219 1271.417969 343.847656 1271.417969 344.902344 C 1270.890625 344.375 1270.367188 343.847656 1269.839844 343.324219 Z M 1269.839844 343.324219 "/>
</g>
<mask id="mask27">
  <g filter="url(#alpha)">
<rect x="0" y="0" width="2999" height="1468" style="fill:rgb(0%,0%,0%);fill-opacity:0.0235294;stroke:none;"/>
  </g>
</mask>
<clipPath id="clip28">
  <rect x="0" y="0" width="2999" height="1468"/>
</clipPath>
<g id="surface86" clip-path="url(#clip28)">
<path style=" stroke:none;fill-rule:evenodd;fill:rgb(18.431373%,18.82353%,18.431373%);fill-opacity:1;" d="M 1271.417969 344.902344 C 1273.523438 345.953125 1273.523438 345.953125 1271.417969 344.902344 Z M 1271.417969 344.902344 "/>
</g>
<mask id="mask28">
  <g filter="url(#alpha)">
<rect x="0" y="0" width="2999" height="1468" style="fill:rgb(0%,0%,0%);fill-opacity:0.0431373;stroke:none;"/>
  </g>
</mask>
<clipPath id="clip29">
  <rect x="0" y="0" width="2999" height="1468"/>
</clipPath>
<g id="surface89" clip-path="url(#clip29)">
<path style=" stroke:none;fill-rule:evenodd;fill:rgb(81.568629%,81.960785%,81.568629%);fill-opacity:1;" d="M 1274.574219 349.636719 C 1273.523438 347.53125 1273.523438 347.53125 1274.574219 349.636719 Z M 1274.574219 349.636719 "/>
</g>
<mask id="mask29">
  <g filter="url(#alpha)">
<rect x="0" y="0" width="2999" height="1468" style="fill:rgb(0%,0%,0%);fill-opacity:0.0784314;stroke:none;"/>
  </g>
</mask>
<clipPath id="clip30">
  <rect x="0" y="0" width="2999" height="1468"/>
</clipPath>
<g id="surface92" clip-path="url(#clip30)">
<path style=" stroke:none;fill-rule:evenodd;fill:rgb(57.647061%,57.647061%,57.647061%);fill-opacity:1;" d="M 963.625 344.902344 C 965.359375 346.640625 965.621094 348.742188 964.414062 351.214844 C 963.640625 349.175781 963.378906 347.066406 963.625 344.902344 Z M 963.625 344.902344 "/>
</g>
<mask id="mask30">
  <g filter="url(#alpha)">
<rect x="0" y="0" width="2999" height="1468" style="fill:rgb(0%,0%,0%);fill-opacity:0.137255;stroke:none;"/>
  </g>
</mask>
<clipPath id="clip31">
  <rect x="0" y="0" width="2999" height="1468"/>
</clipPath>
<g id="surface95" clip-path="url(#clip31)">
<path style=" stroke:none;fill-rule:evenodd;fill:rgb(62.352943%,62.7451%,62.352943%);fill-opacity:1;" d="M 1274.574219 349.636719 C 1275.628906 349.636719 1276.152344 350.164062 1276.152344 351.214844 C 1275.628906 350.6875 1275.101562 350.164062 1274.574219 349.636719 Z M 1274.574219 349.636719 "/>
</g>
<mask id="mask31">
  <g filter="url(#alpha)">
<rect x="0" y="0" width="2999" height="1468" style="fill:rgb(0%,0%,0%);fill-opacity:0.129412;stroke:none;"/>
  </g>
</mask>
<clipPath id="clip32">
  <rect x="0" y="0" width="2999" height="1468"/>
</clipPath>
<g id="surface98" clip-path="url(#clip32)">
<path style=" stroke:none;fill-rule:evenodd;fill:rgb(37.254903%,37.64706%,37.254903%);fill-opacity:1;" d="M 1276.152344 351.214844 C 1277.207031 351.214844 1277.730469 351.742188 1277.730469 352.792969 C 1277.207031 352.269531 1276.679688 351.742188 1276.152344 351.214844 Z M 1276.152344 351.214844 "/>
</g>
<mask id="mask32">
  <g filter="url(#alpha)">
<rect x="0" y="0" width="2999" height="1468" style="fill:rgb(0%,0%,0%);fill-opacity:0.941176;stroke:none;"/>
  </g>
</mask>
<clipPath id="clip33">
  <rect x="0" y="0" width="2999" height="1468"/>
</clipPath>
<g id="surface101" clip-path="url(#clip33)">
<path style=" stroke:none;fill-rule:evenodd;fill:rgb(34.117648%,34.117648%,36.078432%);fill-opacity:1;" d="M 496.414062 351.214844 C 504.363281 351.355469 512.253906 352.144531 520.089844 353.582031 C 523.433594 353.738281 526.066406 355.050781 527.980469 357.527344 C 517.277344 375.253906 507.808594 393.667969 499.570312 412.777344 C 480.425781 420.039062 461.484375 427.929688 442.746094 436.453125 C 442.222656 435.929688 441.695312 435.402344 441.167969 434.875 C 451.191406 406.671875 464.347656 380.101562 480.628906 355.160156 C 486.078125 353.765625 491.339844 352.449219 496.414062 351.214844 Z M 496.414062 351.214844 "/>
</g>
<mask id="mask33">
  <g filter="url(#alpha)">
<rect x="0" y="0" width="2999" height="1468" style="fill:rgb(0%,0%,0%);fill-opacity:0.0862745;stroke:none;"/>
  </g>
</mask>
<clipPath id="clip34">
  <rect x="0" y="0" width="2999" height="1468"/>
</clipPath>
<g id="surface104" clip-path="url(#clip34)">
<path style=" stroke:none;fill-rule:evenodd;fill:rgb(58.039218%,58.039218%,58.039218%);fill-opacity:1;" d="M 992.039062 348.058594 C 993.769531 349.796875 994.035156 351.898438 992.828125 354.371094 C 992.054688 352.332031 991.789062 350.226562 992.039062 348.058594 Z M 992.039062 348.058594 "/>
</g>
<mask id="mask34">
  <g filter="url(#alpha)">
<rect x="0" y="0" width="2999" height="1468" style="fill:rgb(0%,0%,0%);fill-opacity:0.0666667;stroke:none;"/>
  </g>
</mask>
<clipPath id="clip35">
  <rect x="0" y="0" width="2999" height="1468"/>
</clipPath>
<g id="surface107" clip-path="url(#clip35)">
<path style=" stroke:none;fill-rule:evenodd;fill:rgb(24.705882%,25.098041%,24.705882%);fill-opacity:1;" d="M 1277.730469 352.792969 C 1279.835938 353.847656 1279.835938 353.847656 1277.730469 352.792969 Z M 1277.730469 352.792969 "/>
</g>
<mask id="mask35">
  <g filter="url(#alpha)">
<rect x="0" y="0" width="2999" height="1468" style="fill:rgb(0%,0%,0%);fill-opacity:0.0235294;stroke:none;"/>
  </g>
</mask>
<clipPath id="clip36">
  <rect x="0" y="0" width="2999" height="1468"/>
</clipPath>
<g id="surface110" clip-path="url(#clip36)">
<path style=" stroke:none;fill-rule:evenodd;fill:rgb(75.294119%,75.686276%,75.294119%);fill-opacity:1;" d="M 892.597656 354.371094 C 894.699219 355.425781 894.699219 355.425781 892.597656 354.371094 Z M 892.597656 354.371094 "/>
</g>
<mask id="mask36">
  <g filter="url(#alpha)">
<rect x="0" y="0" width="2999" height="1468" style="fill:rgb(0%,0%,0%);fill-opacity:0.0470588;stroke:none;"/>
  </g>
</mask>
<clipPath id="clip37">
  <rect x="0" y="0" width="2999" height="1468"/>
</clipPath>
<g id="surface113" clip-path="url(#clip37)">
<path style=" stroke:none;fill-rule:evenodd;fill:rgb(81.176472%,81.568629%,81.176472%);fill-opacity:1;" d="M 1280.890625 357.527344 C 1279.835938 355.425781 1279.835938 355.425781 1280.890625 357.527344 Z M 1280.890625 357.527344 "/>
</g>
<mask id="mask37">
  <g filter="url(#alpha)">
<rect x="0" y="0" width="2999" height="1468" style="fill:rgb(0%,0%,0%);fill-opacity:0.137255;stroke:none;"/>
  </g>
</mask>
<clipPath id="clip38">
  <rect x="0" y="0" width="2999" height="1468"/>
</clipPath>
<g id="surface116" clip-path="url(#clip38)">
<path style=" stroke:none;fill-rule:evenodd;fill:rgb(62.352943%,62.7451%,62.352943%);fill-opacity:1;" d="M 1280.890625 357.527344 C 1281.941406 357.527344 1282.46875 358.054688 1282.46875 359.109375 C 1281.941406 358.582031 1281.414062 358.054688 1280.890625 357.527344 Z M 1280.890625 357.527344 "/>
</g>
<mask id="mask38">
  <g filter="url(#alpha)">
<rect x="0" y="0" width="2999" height="1468" style="fill:rgb(0%,0%,0%);fill-opacity:0.129412;stroke:none;"/>
  </g>
</mask>
<clipPath id="clip39">
  <rect x="0" y="0" width="2999" height="1468"/>
</clipPath>
<g id="surface119" clip-path="url(#clip39)">
<path style=" stroke:none;fill-rule:evenodd;fill:rgb(44.313726%,44.313726%,44.313726%);fill-opacity:1;" d="M 993.617188 357.527344 C 995.347656 359.265625 995.613281 361.371094 994.40625 363.84375 C 993.632812 361.800781 993.367188 359.695312 993.617188 357.527344 Z M 993.617188 357.527344 "/>
</g>
<mask id="mask39">
  <g filter="url(#alpha)">
<rect x="0" y="0" width="2999" height="1468" style="fill:rgb(0%,0%,0%);fill-opacity:0.129412;stroke:none;"/>
  </g>
</mask>
<clipPath id="clip40">
  <rect x="0" y="0" width="2999" height="1468"/>
</clipPath>
<g id="surface122" clip-path="url(#clip40)">
<path style=" stroke:none;fill-rule:evenodd;fill:rgb(37.254903%,37.64706%,37.254903%);fill-opacity:1;" d="M 1282.46875 359.109375 C 1283.519531 359.109375 1284.046875 359.632812 1284.046875 360.6875 C 1283.519531 360.160156 1282.992188 359.632812 1282.46875 359.109375 Z M 1282.46875 359.109375 "/>
</g>
<mask id="mask40">
  <g filter="url(#alpha)">
<rect x="0" y="0" width="2999" height="1468" style="fill:rgb(0%,0%,0%);fill-opacity:0.0470588;stroke:none;"/>
  </g>
</mask>
<clipPath id="clip41">
  <rect x="0" y="0" width="2999" height="1468"/>
</clipPath>
<g id="surface125" clip-path="url(#clip41)">
<path style=" stroke:none;fill-rule:evenodd;fill:rgb(58.823532%,58.823532%,58.823532%);fill-opacity:1;" d="M 1284.046875 360.6875 C 1285.367188 361.226562 1285.894531 362.277344 1285.625 363.84375 C 1284.300781 363.304688 1283.773438 362.25 1284.046875 360.6875 Z M 1284.046875 360.6875 "/>
</g>
<mask id="mask41">
  <g filter="url(#alpha)">
<rect x="0" y="0" width="2999" height="1468" style="fill:rgb(0%,0%,0%);fill-opacity:0.137255;stroke:none;"/>
  </g>
</mask>
<clipPath id="clip42">
  <rect x="0" y="0" width="2999" height="1468"/>
</clipPath>
<g id="surface128" clip-path="url(#clip42)">
<path style=" stroke:none;fill-rule:evenodd;fill:rgb(61.960787%,62.352943%,61.960787%);fill-opacity:1;" d="M 1285.625 363.84375 C 1286.675781 363.84375 1287.203125 364.367188 1287.203125 365.421875 C 1286.675781 364.894531 1286.148438 364.367188 1285.625 363.84375 Z M 1285.625 363.84375 "/>
</g>
<mask id="mask42">
  <g filter="url(#alpha)">
<rect x="0" y="0" width="2999" height="1468" style="fill:rgb(0%,0%,0%);fill-opacity:0.129412;stroke:none;"/>
  </g>
</mask>
<clipPath id="clip43">
  <rect x="0" y="0" width="2999" height="1468"/>
</clipPath>
<g id="surface131" clip-path="url(#clip43)">
<path style=" stroke:none;fill-rule:evenodd;fill:rgb(36.862746%,37.254903%,36.862746%);fill-opacity:1;" d="M 1287.203125 365.421875 C 1288.253906 365.421875 1288.78125 365.945312 1288.78125 367 C 1288.253906 366.472656 1287.726562 365.945312 1287.203125 365.421875 Z M 1287.203125 365.421875 "/>
</g>
<mask id="mask43">
  <g filter="url(#alpha)">
<rect x="0" y="0" width="2999" height="1468" style="fill:rgb(0%,0%,0%);fill-opacity:0.0156863;stroke:none;"/>
  </g>
</mask>
<clipPath id="clip44">
  <rect x="0" y="0" width="2999" height="1468"/>
</clipPath>
<g id="surface134" clip-path="url(#clip44)">
<path style=" stroke:none;fill-rule:evenodd;fill:rgb(24.705882%,25.098041%,24.705882%);fill-opacity:1;" d="M 995.195312 367 C 997.296875 368.054688 997.296875 368.054688 995.195312 367 Z M 995.195312 367 "/>
</g>
<mask id="mask44">
  <g filter="url(#alpha)">
<rect x="0" y="0" width="2999" height="1468" style="fill:rgb(0%,0%,0%);fill-opacity:0.0470588;stroke:none;"/>
  </g>
</mask>
<clipPath id="clip45">
  <rect x="0" y="0" width="2999" height="1468"/>
</clipPath>
<g id="surface137" clip-path="url(#clip45)">
<path style=" stroke:none;fill-rule:evenodd;fill:rgb(58.823532%,58.823532%,58.823532%);fill-opacity:1;" d="M 1288.78125 367 C 1290.101562 367.539062 1290.628906 368.589844 1290.359375 370.15625 C 1289.035156 369.617188 1288.507812 368.566406 1288.78125 367 Z M 1288.78125 367 "/>
</g>
<mask id="mask45">
  <g filter="url(#alpha)">
<rect x="0" y="0" width="2999" height="1468" style="fill:rgb(0%,0%,0%);fill-opacity:0.14902;stroke:none;"/>
  </g>
</mask>
<clipPath id="clip46">
  <rect x="0" y="0" width="2999" height="1468"/>
</clipPath>
<g id="surface140" clip-path="url(#clip46)">
<path style=" stroke:none;fill-rule:evenodd;fill:rgb(56.078434%,56.470591%,56.078434%);fill-opacity:1;" d="M 1290.359375 370.15625 C 1291.410156 370.15625 1291.9375 370.683594 1291.9375 371.734375 C 1291.410156 371.210938 1290.886719 370.683594 1290.359375 370.15625 Z M 1290.359375 370.15625 "/>
</g>
<mask id="mask46">
  <g filter="url(#alpha)">
<rect x="0" y="0" width="2999" height="1468" style="fill:rgb(0%,0%,0%);fill-opacity:0.0823529;stroke:none;"/>
  </g>
</mask>
<clipPath id="clip47">
  <rect x="0" y="0" width="2999" height="1468"/>
</clipPath>
<g id="surface143" clip-path="url(#clip47)">
<path style=" stroke:none;fill-rule:evenodd;fill:rgb(30.980393%,31.37255%,30.980393%);fill-opacity:1;" d="M 1291.9375 371.734375 C 1294.042969 372.789062 1294.042969 372.789062 1291.9375 371.734375 Z M 1291.9375 371.734375 "/>
</g>
<mask id="mask47">
  <g filter="url(#alpha)">
<rect x="0" y="0" width="2999" height="1468" style="fill:rgb(0%,0%,0%);fill-opacity:0.996078;stroke:none;"/>
  </g>
</mask>
<clipPath id="clip48">
  <rect x="0" y="0" width="2999" height="1468"/>
</clipPath>
<g id="surface146" clip-path="url(#clip48)">
<path style=" stroke:none;fill-rule:evenodd;fill:rgb(80.000001%,80.392158%,81.176472%);fill-opacity:1;" d="M 733.175781 472.757812 C 788.921875 475.90625 845.21875 476.957031 902.066406 475.917969 C 889.113281 497.148438 870.699219 511.621094 846.824219 519.324219 C 833.375 523.476562 819.695312 526.632812 805.785156 528.796875 C 782.84375 530.070312 759.957031 529.808594 737.121094 528.007812 C 721.597656 529.070312 706.078125 530.386719 690.558594 531.953125 C 673.273438 534.539062 659.066406 542.433594 647.941406 555.628906 C 612.117188 555.769531 576.339844 556.824219 540.609375 558.785156 C 516.53125 561.214844 497.324219 572.003906 482.996094 591.144531 C 421.828125 689.804688 361.847656 789.25 303.058594 889.480469 C 288.835938 909.269531 270.15625 922.421875 247.023438 928.945312 C 245.949219 913.585938 247.265625 898.324219 250.96875 883.167969 C 264.371094 835.070312 281.207031 788.238281 301.476562 742.683594 C 318.410156 705.132812 335.773438 667.777344 353.566406 630.609375 C 354.09375 605.351562 354.617188 580.097656 355.144531 554.839844 C 368.003906 532.769531 383 512.25 400.128906 493.28125 C 439.058594 461.980469 483.253906 442.25 532.71875 434.085938 C 568.496094 433.03125 604.273438 433.03125 640.050781 434.085938 C 663.3125 434.03125 685.9375 437.714844 707.921875 445.136719 C 720.566406 450.667969 728.984375 459.878906 733.175781 472.757812 Z M 586.382812 512.222656 C 596.867188 512.441406 601.335938 517.703125 599.800781 528.007812 C 593.949219 535.53125 587.636719 536.058594 580.859375 529.585938 C 578.519531 522.125 580.363281 516.335938 586.382812 512.222656 Z M 469.582031 537.476562 C 481.445312 538.089844 485.394531 543.875 481.417969 554.839844 C 471.984375 562.105469 465.40625 560 461.6875 548.527344 C 462.570312 543.457031 465.203125 539.773438 469.582031 537.476562 Z M 398.550781 647.972656 C 409.46875 648.722656 413.414062 654.511719 410.390625 665.335938 C 403.320312 672.015625 397.007812 671.488281 391.449219 663.757812 C 389.191406 656.3125 391.558594 651.050781 398.550781 647.972656 Z M 336.992188 748.996094 C 347.558594 749.289062 352.027344 754.550781 350.410156 764.78125 C 340.902344 774.042969 333.800781 772.464844 329.101562 760.046875 C 329.992188 754.96875 332.625 751.285156 336.992188 748.996094 Z M 336.992188 748.996094 "/>
</g>
<mask id="mask48">
  <g filter="url(#alpha)">
<rect x="0" y="0" width="2999" height="1468" style="fill:rgb(0%,0%,0%);fill-opacity:0.0117647;stroke:none;"/>
  </g>
</mask>
<clipPath id="clip49">
  <rect x="0" y="0" width="2999" height="1468"/>
</clipPath>
<g id="surface149" clip-path="url(#clip49)">
<path style=" stroke:none;fill-rule:evenodd;fill:rgb(24.705882%,25.098041%,24.705882%);fill-opacity:1;" d="M 1236.691406 471.179688 C 1238.3125 471.808594 1238.574219 472.859375 1237.480469 474.335938 C 1236.75 473.398438 1236.484375 472.347656 1236.691406 471.179688 Z M 1236.691406 471.179688 "/>
</g>
<mask id="mask49">
  <g filter="url(#alpha)">
<rect x="0" y="0" width="2999" height="1468" style="fill:rgb(0%,0%,0%);fill-opacity:0.54902;stroke:none;"/>
  </g>
</mask>
<clipPath id="clip50">
  <rect x="0" y="0" width="2999" height="1468"/>
</clipPath>
<g id="surface152" clip-path="url(#clip50)">
<path style=" stroke:none;fill-rule:evenodd;fill:rgb(52.549022%,52.549022%,53.333336%);fill-opacity:1;" d="M 733.175781 472.757812 C 789.628906 473.800781 845.925781 474.855469 902.066406 475.917969 C 845.21875 476.957031 788.921875 475.90625 733.175781 472.757812 Z M 733.175781 472.757812 "/>
</g>
<mask id="mask50">
  <g filter="url(#alpha)">
<rect x="0" y="0" width="2999" height="1468" style="fill:rgb(0%,0%,0%);fill-opacity:0.0705882;stroke:none;"/>
  </g>
</mask>
<clipPath id="clip51">
  <rect x="0" y="0" width="2999" height="1468"/>
</clipPath>
<g id="surface155" clip-path="url(#clip51)">
<path style=" stroke:none;fill-rule:evenodd;fill:rgb(47.450981%,47.450981%,47.450981%);fill-opacity:1;" d="M 1284.046875 479.074219 C 1285.777344 480.8125 1286.042969 482.914062 1284.835938 485.386719 C 1284.0625 483.347656 1283.796875 481.242188 1284.046875 479.074219 Z M 1284.046875 479.074219 "/>
</g>
<mask id="mask51">
  <g filter="url(#alpha)">
<rect x="0" y="0" width="2999" height="1468" style="fill:rgb(0%,0%,0%);fill-opacity:0.0980392;stroke:none;"/>
  </g>
</mask>
<clipPath id="clip52">
  <rect x="0" y="0" width="2999" height="1468"/>
</clipPath>
<g id="surface158" clip-path="url(#clip52)">
<path style=" stroke:none;fill-rule:evenodd;fill:rgb(44.313726%,44.313726%,44.313726%);fill-opacity:1;" d="M 1265.105469 488.542969 C 1266.835938 490.28125 1267.101562 492.386719 1265.894531 494.859375 C 1265.121094 492.816406 1264.855469 490.710938 1265.105469 488.542969 Z M 1265.105469 488.542969 "/>
</g>
<mask id="mask52">
  <g filter="url(#alpha)">
<rect x="0" y="0" width="2999" height="1468" style="fill:rgb(0%,0%,0%);fill-opacity:0.0470588;stroke:none;"/>
  </g>
</mask>
<clipPath id="clip53">
  <rect x="0" y="0" width="2999" height="1468"/>
</clipPath>
<g id="surface161" clip-path="url(#clip53)">
<path style=" stroke:none;fill-rule:evenodd;fill:rgb(24.705882%,25.098041%,24.705882%);fill-opacity:1;" d="M 1236.691406 491.699219 C 1238.503906 498.773438 1238.769531 506.140625 1237.480469 513.800781 C 1236.695312 506.453125 1236.429688 499.085938 1236.691406 491.699219 Z M 1236.691406 491.699219 "/>
</g>
<mask id="mask53">
  <g filter="url(#alpha)">
<rect x="0" y="0" width="2999" height="1468" style="fill:rgb(0%,0%,0%);fill-opacity:0.0980392;stroke:none;"/>
  </g>
</mask>
<clipPath id="clip54">
  <rect x="0" y="0" width="2999" height="1468"/>
</clipPath>
<g id="surface164" clip-path="url(#clip54)">
<path style=" stroke:none;fill-rule:evenodd;fill:rgb(43.137255%,43.137255%,43.137255%);fill-opacity:1;" d="M 1282.46875 490.121094 C 1284.199219 491.859375 1284.464844 493.964844 1283.257812 496.4375 C 1282.484375 494.394531 1282.21875 492.289062 1282.46875 490.121094 Z M 1282.46875 490.121094 "/>
</g>
<mask id="mask54">
  <g filter="url(#alpha)">
<rect x="0" y="0" width="2999" height="1468" style="fill:rgb(0%,0%,0%);fill-opacity:0.0392157;stroke:none;"/>
  </g>
</mask>
<clipPath id="clip55">
  <rect x="0" y="0" width="2999" height="1468"/>
</clipPath>
<g id="surface167" clip-path="url(#clip55)">
<path style=" stroke:none;fill-rule:evenodd;fill:rgb(49.803922%,49.803922%,49.803922%);fill-opacity:1;" d="M 1266.683594 498.015625 C 1268.414062 499.753906 1268.679688 501.855469 1267.472656 504.328125 C 1266.699219 502.289062 1266.433594 500.183594 1266.683594 498.015625 Z M 1266.683594 498.015625 "/>
</g>
<mask id="mask55">
  <g filter="url(#alpha)">
<rect x="0" y="0" width="2999" height="1468" style="fill:rgb(0%,0%,0%);fill-opacity:0.101961;stroke:none;"/>
  </g>
</mask>
<clipPath id="clip56">
  <rect x="0" y="0" width="2999" height="1468"/>
</clipPath>
<g id="surface170" clip-path="url(#clip56)">
<path style=" stroke:none;fill-rule:evenodd;fill:rgb(41.960785%,41.960785%,41.960785%);fill-opacity:1;" d="M 1280.890625 501.171875 C 1282.582031 502.359375 1282.847656 503.9375 1281.679688 505.90625 C 1280.914062 504.410156 1280.652344 502.832031 1280.890625 501.171875 Z M 1280.890625 501.171875 "/>
</g>
<mask id="mask56">
  <g filter="url(#alpha)">
<rect x="0" y="0" width="2999" height="1468" style="fill:rgb(0%,0%,0%);fill-opacity:0.0705882;stroke:none;"/>
  </g>
</mask>
<clipPath id="clip57">
  <rect x="0" y="0" width="2999" height="1468"/>
</clipPath>
<g id="surface173" clip-path="url(#clip57)">
<path style=" stroke:none;fill-rule:evenodd;fill:rgb(32.549021%,32.549021%,32.549021%);fill-opacity:1;" d="M 1268.261719 507.484375 C 1269.953125 508.671875 1270.21875 510.25 1269.050781 512.222656 C 1268.289062 510.726562 1268.027344 509.148438 1268.261719 507.484375 Z M 1268.261719 507.484375 "/>
</g>
<mask id="mask57">
  <g filter="url(#alpha)">
<rect x="0" y="0" width="2999" height="1468" style="fill:rgb(0%,0%,0%);fill-opacity:0.117647;stroke:none;"/>
  </g>
</mask>
<clipPath id="clip58">
  <rect x="0" y="0" width="2999" height="1468"/>
</clipPath>
<g id="surface176" clip-path="url(#clip58)">
<path style=" stroke:none;fill-rule:evenodd;fill:rgb(51.372552%,51.372552%,51.372552%);fill-opacity:1;" d="M 1252.476562 509.066406 C 1254.171875 510.25 1254.433594 511.828125 1253.265625 513.800781 C 1252.503906 512.304688 1252.242188 510.726562 1252.476562 509.066406 Z M 1252.476562 509.066406 "/>
</g>
<mask id="mask58">
  <g filter="url(#alpha)">
<rect x="0" y="0" width="2999" height="1468" style="fill:rgb(0%,0%,0%);fill-opacity:0.886275;stroke:none;"/>
  </g>
</mask>
<clipPath id="clip59">
  <rect x="0" y="0" width="2999" height="1468"/>
</clipPath>
<g id="surface179" clip-path="url(#clip59)">
<path style=" stroke:none;fill-rule:evenodd;fill:rgb(47.843137%,48.235294%,49.019608%);fill-opacity:1;" d="M 905.222656 491.699219 C 906.167969 492.070312 906.691406 492.859375 906.804688 494.070312 C 894.859375 518.632812 875.917969 535.472656 849.980469 544.582031 C 841.660156 547.53125 833.238281 550.160156 824.726562 552.472656 C 771.648438 555.050781 718.507812 555.574219 665.304688 554.050781 C 675.511719 547.84375 686.558594 544.160156 698.453125 543.003906 C 727.363281 540.191406 756.300781 539.929688 785.265625 542.214844 C 824.191406 541.773438 859.445312 530.460938 891.019531 508.273438 C 896.710938 503.386719 901.449219 497.859375 905.222656 491.699219 Z M 905.222656 491.699219 "/>
</g>
<mask id="mask59">
  <g filter="url(#alpha)">
<rect x="0" y="0" width="2999" height="1468" style="fill:rgb(0%,0%,0%);fill-opacity:0.0352941;stroke:none;"/>
  </g>
</mask>
<clipPath id="clip60">
  <rect x="0" y="0" width="2999" height="1468"/>
</clipPath>
<g id="surface182" clip-path="url(#clip60)">
<path style=" stroke:none;fill-rule:evenodd;fill:rgb(54.11765%,54.11765%,54.11765%);fill-opacity:1;" d="M 1288.78125 535.898438 C 1290.398438 536.527344 1290.664062 537.578125 1289.570312 539.054688 C 1288.835938 538.117188 1288.574219 537.066406 1288.78125 535.898438 Z M 1288.78125 535.898438 "/>
</g>
<mask id="mask60">
  <g filter="url(#alpha)">
<rect x="0" y="0" width="2999" height="1468" style="fill:rgb(0%,0%,0%);fill-opacity:0.0156863;stroke:none;"/>
  </g>
</mask>
<clipPath id="clip61">
  <rect x="0" y="0" width="2999" height="1468"/>
</clipPath>
<g id="surface185" clip-path="url(#clip61)">
<path style=" stroke:none;fill-rule:evenodd;fill:rgb(24.705882%,24.705882%,24.705882%);fill-opacity:1;" d="M 1197.230469 565.890625 C 1204.304688 564.078125 1211.671875 563.816406 1219.332031 565.101562 C 1211.984375 565.890625 1204.617188 566.152344 1197.230469 565.890625 Z M 1197.230469 565.890625 "/>
</g>
<mask id="mask61">
  <g filter="url(#alpha)">
<rect x="0" y="0" width="2999" height="1468" style="fill:rgb(0%,0%,0%);fill-opacity:0.0627451;stroke:none;"/>
  </g>
</mask>
<clipPath id="clip62">
  <rect x="0" y="0" width="2999" height="1468"/>
</clipPath>
<g id="surface188" clip-path="url(#clip62)">
<path style=" stroke:none;fill-rule:evenodd;fill:rgb(49.803922%,50.196081%,49.803922%);fill-opacity:1;" d="M 1252.476562 564.3125 C 1254.265625 568.203125 1254.53125 572.414062 1253.265625 576.941406 C 1252.480469 572.761719 1252.21875 568.554688 1252.476562 564.3125 Z M 1252.476562 564.3125 "/>
</g>
<mask id="mask62">
  <g filter="url(#alpha)">
<rect x="0" y="0" width="2999" height="1468" style="fill:rgb(0%,0%,0%);fill-opacity:0.0509804;stroke:none;"/>
  </g>
</mask>
<clipPath id="clip63">
  <rect x="0" y="0" width="2999" height="1468"/>
</clipPath>
<g id="surface191" clip-path="url(#clip63)">
<path style=" stroke:none;fill-rule:evenodd;fill:rgb(24.705882%,24.705882%,24.705882%);fill-opacity:1;" d="M 1236.691406 565.890625 C 1238.492188 570.847656 1238.757812 576.109375 1237.480469 581.675781 C 1236.695312 576.4375 1236.433594 571.179688 1236.691406 565.890625 Z M 1236.691406 565.890625 "/>
</g>
<mask id="mask63">
  <g filter="url(#alpha)">
<rect x="0" y="0" width="2999" height="1468" style="fill:rgb(0%,0%,0%);fill-opacity:0.992157;stroke:none;"/>
  </g>
</mask>
<clipPath id="clip64">
  <rect x="0" y="0" width="2999" height="1468"/>
</clipPath>
<g id="surface194" clip-path="url(#clip64)">
<path style=" stroke:none;fill-rule:evenodd;fill:rgb(74.901962%,18.039216%,22.352941%);fill-opacity:1;" d="M 569.019531 580.097656 C 575.859375 580.097656 582.699219 580.097656 589.539062 580.097656 C 589.992188 608.847656 576.3125 619.636719 548.5 612.457031 C 537.910156 606.316406 533.171875 597.109375 534.296875 584.832031 C 546.019531 582.804688 557.597656 581.226562 569.019531 580.097656 Z M 569.019531 580.097656 "/>
</g>
<mask id="mask64">
  <g filter="url(#alpha)">
<rect x="0" y="0" width="2999" height="1468" style="fill:rgb(0%,0%,0%);fill-opacity:0.972549;stroke:none;"/>
  </g>
</mask>
<clipPath id="clip65">
  <rect x="0" y="0" width="2999" height="1468"/>
</clipPath>
<g id="surface197" clip-path="url(#clip65)">
<path style=" stroke:none;fill-rule:evenodd;fill:rgb(64.705884%,65.098041%,65.882355%);fill-opacity:1;" d="M 507.460938 599.039062 C 512.445312 610.664062 519.8125 620.921875 529.558594 629.820312 C 539.453125 636.886719 550.503906 640.308594 562.707031 640.078125 C 563.566406 709.214844 583.824219 771.832031 623.476562 827.921875 C 634.09375 841.183594 646.984375 851.441406 662.148438 858.699219 C 670.800781 861.785156 679.746094 863.363281 688.980469 863.4375 C 650.917969 900.734375 609.878906 934.144531 565.863281 963.671875 C 563.53125 968.550781 560.902344 973.285156 557.972656 977.878906 C 555.398438 980.714844 552.242188 982.554688 548.5 983.402344 C 544.148438 991.636719 537.308594 996.371094 527.980469 997.609375 C 523.726562 1008.160156 515.832031 1013.949219 504.304688 1014.972656 C 472.195312 1033.269531 437.46875 1043.265625 400.128906 1044.964844 C 377.375 1047.734375 354.75 1047.207031 332.257812 1043.386719 C 327.707031 1040.847656 322.972656 1038.742188 318.050781 1037.070312 C 311.035156 1028.730469 303.667969 1020.574219 295.953125 1012.605469 C 276.828125 1007.675781 263.671875 996.097656 256.492188 977.878906 C 263.574219 981.386719 270.414062 986.386719 277.011719 992.875 C 295.933594 1003.191406 315.398438 1004.242188 335.414062 996.03125 C 343.832031 991.820312 352.25 987.613281 360.667969 983.402344 C 383.820312 967.617188 406.96875 951.832031 430.121094 936.046875 C 438.757812 932.441406 447.699219 931.386719 456.953125 932.890625 C 466.277344 935.554688 475.222656 938.976562 483.785156 943.152344 C 493.980469 941.71875 497.925781 935.929688 495.625 925.785156 C 477.371094 909.097656 456.0625 903.570312 431.699219 909.214844 C 422.910156 912.027344 414.492188 915.710938 406.445312 920.261719 C 386.886719 935.082031 366.894531 949.289062 346.464844 962.882812 C 334.5 970.3125 321.609375 975.3125 307.792969 977.878906 C 290.726562 974.246094 277.835938 964.773438 269.121094 949.464844 C 272.019531 947.226562 275.175781 945.382812 278.589844 943.941406 C 313.910156 942.820312 331.535156 924.667969 331.46875 889.480469 C 388.960938 791.835938 447.625 695.023438 507.460938 599.039062 Z M 507.460938 599.039062 "/>
</g>
<mask id="mask65">
  <g filter="url(#alpha)">
<rect x="0" y="0" width="2999" height="1468" style="fill:rgb(0%,0%,0%);fill-opacity:0.137255;stroke:none;"/>
  </g>
</mask>
<clipPath id="clip66">
  <rect x="0" y="0" width="2999" height="1468"/>
</clipPath>
<g id="surface200" clip-path="url(#clip66)">
<path style=" stroke:none;fill-rule:evenodd;fill:rgb(59.215689%,59.215689%,59.215689%);fill-opacity:1;" d="M 1217.75 605.351562 C 1218.9375 603.660156 1220.515625 603.394531 1222.488281 604.5625 C 1220.992188 605.324219 1219.414062 605.585938 1217.75 605.351562 Z M 1217.75 605.351562 "/>
</g>
<mask id="mask66">
  <g filter="url(#alpha)">
<rect x="0" y="0" width="2999" height="1468" style="fill:rgb(0%,0%,0%);fill-opacity:0.137255;stroke:none;"/>
  </g>
</mask>
<clipPath id="clip67">
  <rect x="0" y="0" width="2999" height="1468"/>
</clipPath>
<g id="surface203" clip-path="url(#clip67)">
<path style=" stroke:none;fill-rule:evenodd;fill:rgb(62.7451%,63.137257%,62.7451%);fill-opacity:1;" d="M 1224.066406 605.351562 C 1226.167969 606.40625 1226.167969 606.40625 1224.066406 605.351562 Z M 1224.066406 605.351562 "/>
</g>
<mask id="mask67">
  <g filter="url(#alpha)">
<rect x="0" y="0" width="2999" height="1468" style="fill:rgb(0%,0%,0%);fill-opacity:0.14902;stroke:none;"/>
  </g>
</mask>
<clipPath id="clip68">
  <rect x="0" y="0" width="2999" height="1468"/>
</clipPath>
<g id="surface206" clip-path="url(#clip68)">
<path style=" stroke:none;fill-rule:evenodd;fill:rgb(56.470591%,56.862748%,56.470591%);fill-opacity:1;" d="M 1228.800781 608.507812 C 1227.746094 606.40625 1227.746094 606.40625 1228.800781 608.507812 Z M 1228.800781 608.507812 "/>
</g>
<mask id="mask68">
  <g filter="url(#alpha)">
<rect x="0" y="0" width="2999" height="1468" style="fill:rgb(0%,0%,0%);fill-opacity:0.152941;stroke:none;"/>
  </g>
</mask>
<clipPath id="clip69">
  <rect x="0" y="0" width="2999" height="1468"/>
</clipPath>
<g id="surface209" clip-path="url(#clip69)">
<path style=" stroke:none;fill-rule:evenodd;fill:rgb(48.627451%,48.627451%,48.627451%);fill-opacity:1;" d="M 1175.132812 605.351562 C 1176.90625 608.175781 1177.167969 611.332031 1175.921875 614.824219 C 1175.140625 611.710938 1174.878906 608.550781 1175.132812 605.351562 Z M 1175.132812 605.351562 "/>
</g>
<mask id="mask69">
  <g filter="url(#alpha)">
<rect x="0" y="0" width="2999" height="1468" style="fill:rgb(0%,0%,0%);fill-opacity:0.0470588;stroke:none;"/>
  </g>
</mask>
<clipPath id="clip70">
  <rect x="0" y="0" width="2999" height="1468"/>
</clipPath>
<g id="surface212" clip-path="url(#clip70)">
<path style=" stroke:none;fill-rule:evenodd;fill:rgb(81.176472%,81.568629%,81.176472%);fill-opacity:1;" d="M 1228.800781 608.507812 C 1229.855469 608.507812 1230.378906 609.035156 1230.378906 610.089844 C 1229.855469 609.5625 1229.328125 609.035156 1228.800781 608.507812 Z M 1228.800781 608.507812 "/>
</g>
<mask id="mask70">
  <g filter="url(#alpha)">
<rect x="0" y="0" width="2999" height="1468" style="fill:rgb(0%,0%,0%);fill-opacity:0.0470588;stroke:none;"/>
  </g>
</mask>
<clipPath id="clip71">
  <rect x="0" y="0" width="2999" height="1468"/>
</clipPath>
<g id="surface215" clip-path="url(#clip71)">
<path style=" stroke:none;fill-rule:evenodd;fill:rgb(81.176472%,81.568629%,81.176472%);fill-opacity:1;" d="M 1230.378906 610.089844 C 1231.433594 610.089844 1231.957031 610.613281 1231.957031 611.667969 C 1231.433594 611.140625 1230.90625 610.613281 1230.378906 610.089844 Z M 1230.378906 610.089844 "/>
</g>
<mask id="mask71">
  <g filter="url(#alpha)">
<rect x="0" y="0" width="2999" height="1468" style="fill:rgb(0%,0%,0%);fill-opacity:0.152941;stroke:none;"/>
  </g>
</mask>
<clipPath id="clip72">
  <rect x="0" y="0" width="2999" height="1468"/>
</clipPath>
<g id="surface218" clip-path="url(#clip72)">
<path style=" stroke:none;fill-rule:evenodd;fill:rgb(49.411765%,49.411765%,49.411765%);fill-opacity:1;" d="M 1159.351562 606.929688 C 1161.132812 610.289062 1161.394531 613.972656 1160.140625 617.980469 C 1159.355469 614.335938 1159.09375 610.652344 1159.351562 606.929688 Z M 1159.351562 606.929688 "/>
</g>
<mask id="mask72">
  <g filter="url(#alpha)">
<rect x="0" y="0" width="2999" height="1468" style="fill:rgb(0%,0%,0%);fill-opacity:0.137255;stroke:none;"/>
  </g>
</mask>
<clipPath id="clip73">
  <rect x="0" y="0" width="2999" height="1468"/>
</clipPath>
<g id="surface221" clip-path="url(#clip73)">
<path style=" stroke:none;fill-rule:evenodd;fill:rgb(62.352943%,62.7451%,62.352943%);fill-opacity:1;" d="M 1231.957031 611.667969 C 1233.011719 611.667969 1233.535156 612.191406 1233.535156 613.246094 C 1233.011719 612.71875 1232.484375 612.191406 1231.957031 611.667969 Z M 1231.957031 611.667969 "/>
</g>
<mask id="mask73">
  <g filter="url(#alpha)">
<rect x="0" y="0" width="2999" height="1468" style="fill:rgb(0%,0%,0%);fill-opacity:0.0666667;stroke:none;"/>
  </g>
</mask>
<clipPath id="clip74">
  <rect x="0" y="0" width="2999" height="1468"/>
</clipPath>
<g id="surface224" clip-path="url(#clip74)">
<path style=" stroke:none;fill-rule:evenodd;fill:rgb(24.705882%,25.098041%,24.705882%);fill-opacity:1;" d="M 1233.535156 613.246094 C 1235.640625 614.296875 1235.640625 614.296875 1233.535156 613.246094 Z M 1233.535156 613.246094 "/>
</g>
<mask id="mask74">
  <g filter="url(#alpha)">
<rect x="0" y="0" width="2999" height="1468" style="fill:rgb(0%,0%,0%);fill-opacity:0.0156863;stroke:none;"/>
  </g>
</mask>
<clipPath id="clip75">
  <rect x="0" y="0" width="2999" height="1468"/>
</clipPath>
<g id="surface227" clip-path="url(#clip75)">
<path style=" stroke:none;fill-rule:evenodd;fill:rgb(49.411765%,49.411765%,49.411765%);fill-opacity:1;" d="M 1235.113281 616.402344 C 1236.730469 617.027344 1236.996094 618.082031 1235.902344 619.558594 C 1235.171875 618.621094 1234.90625 617.570312 1235.113281 616.402344 Z M 1235.113281 616.402344 "/>
</g>
<mask id="mask75">
  <g filter="url(#alpha)">
<rect x="0" y="0" width="2999" height="1468" style="fill:rgb(0%,0%,0%);fill-opacity:0.0588235;stroke:none;"/>
  </g>
</mask>
<clipPath id="clip76">
  <rect x="0" y="0" width="2999" height="1468"/>
</clipPath>
<g id="surface230" clip-path="url(#clip76)">
<path style=" stroke:none;fill-rule:evenodd;fill:rgb(28.235295%,28.235295%,28.235295%);fill-opacity:1;" d="M 1203.546875 621.136719 C 1207.4375 619.347656 1211.648438 619.085938 1216.171875 620.347656 C 1211.996094 621.132812 1207.789062 621.398438 1203.546875 621.136719 Z M 1203.546875 621.136719 "/>
</g>
<mask id="mask76">
  <g filter="url(#alpha)">
<rect x="0" y="0" width="2999" height="1468" style="fill:rgb(0%,0%,0%);fill-opacity:0.054902;stroke:none;"/>
  </g>
</mask>
<clipPath id="clip77">
  <rect x="0" y="0" width="2999" height="1468"/>
</clipPath>
<g id="surface233" clip-path="url(#clip77)">
<path style=" stroke:none;fill-rule:evenodd;fill:rgb(65.882355%,65.882355%,65.882355%);fill-opacity:1;" d="M 1173.554688 619.558594 C 1175.25 620.746094 1175.511719 622.324219 1174.34375 624.292969 C 1173.582031 622.796875 1173.320312 621.21875 1173.554688 619.558594 Z M 1173.554688 619.558594 "/>
</g>
<mask id="mask77">
  <g filter="url(#alpha)">
<rect x="0" y="0" width="2999" height="1468" style="fill:rgb(0%,0%,0%);fill-opacity:0.0588235;stroke:none;"/>
  </g>
</mask>
<clipPath id="clip78">
  <rect x="0" y="0" width="2999" height="1468"/>
</clipPath>
<g id="surface236" clip-path="url(#clip78)">
<path style=" stroke:none;fill-rule:evenodd;fill:rgb(24.705882%,25.098041%,24.705882%);fill-opacity:1;" d="M 1217.75 622.714844 C 1219.855469 623.769531 1219.855469 623.769531 1217.75 622.714844 Z M 1217.75 622.714844 "/>
</g>
<mask id="mask78">
  <g filter="url(#alpha)">
<rect x="0" y="0" width="2999" height="1468" style="fill:rgb(0%,0%,0%);fill-opacity:0.0196078;stroke:none;"/>
  </g>
</mask>
<clipPath id="clip79">
  <rect x="0" y="0" width="2999" height="1468"/>
</clipPath>
<g id="surface239" clip-path="url(#clip79)">
<path style=" stroke:none;fill-rule:evenodd;fill:rgb(74.509805%,74.901962%,74.509805%);fill-opacity:1;" d="M 1219.332031 625.875 C 1221.433594 626.925781 1221.433594 626.925781 1219.332031 625.875 Z M 1219.332031 625.875 "/>
</g>
<mask id="mask79">
  <g filter="url(#alpha)">
<rect x="0" y="0" width="2999" height="1468" style="fill:rgb(0%,0%,0%);fill-opacity:0.152941;stroke:none;"/>
  </g>
</mask>
<clipPath id="clip80">
  <rect x="0" y="0" width="2999" height="1468"/>
</clipPath>
<g id="surface242" clip-path="url(#clip80)">
<path style=" stroke:none;fill-rule:evenodd;fill:rgb(46.27451%,46.27451%,46.27451%);fill-opacity:1;" d="M 1295.09375 625.875 C 1296.910156 633.476562 1297.171875 641.367188 1295.882812 649.550781 C 1295.097656 641.675781 1294.832031 633.78125 1295.09375 625.875 Z M 1295.09375 625.875 "/>
</g>
<mask id="mask80">
  <g filter="url(#alpha)">
<rect x="0" y="0" width="2999" height="1468" style="fill:rgb(0%,0%,0%);fill-opacity:0.152941;stroke:none;"/>
  </g>
</mask>
<clipPath id="clip81">
  <rect x="0" y="0" width="2999" height="1468"/>
</clipPath>
<g id="surface245" clip-path="url(#clip81)">
<path style=" stroke:none;fill-rule:evenodd;fill:rgb(52.156866%,52.156866%,52.156866%);fill-opacity:1;" d="M 1156.195312 638.5 C 1157.976562 641.859375 1158.238281 645.542969 1156.984375 649.550781 C 1156.199219 645.902344 1155.9375 642.222656 1156.195312 638.5 Z M 1156.195312 638.5 "/>
</g>
<mask id="mask81">
  <g filter="url(#alpha)">
<rect x="0" y="0" width="2999" height="1468" style="fill:rgb(0%,0%,0%);fill-opacity:0.00784314;stroke:none;"/>
  </g>
</mask>
<clipPath id="clip82">
  <rect x="0" y="0" width="2999" height="1468"/>
</clipPath>
<g id="surface248" clip-path="url(#clip82)">
<path style=" stroke:none;fill-rule:evenodd;fill:rgb(24.705882%,25.098041%,24.705882%);fill-opacity:1;" d="M 1171.976562 641.65625 C 1174.082031 642.710938 1174.082031 642.710938 1171.976562 641.65625 Z M 1171.976562 641.65625 "/>
</g>
<mask id="mask82">
  <g filter="url(#alpha)">
<rect x="0" y="0" width="2999" height="1468" style="fill:rgb(0%,0%,0%);fill-opacity:0.152941;stroke:none;"/>
  </g>
</mask>
<clipPath id="clip83">
  <rect x="0" y="0" width="2999" height="1468"/>
</clipPath>
<g id="surface251" clip-path="url(#clip83)">
<path style=" stroke:none;fill-rule:evenodd;fill:rgb(48.235294%,48.235294%,48.235294%);fill-opacity:1;" d="M 1170.398438 647.972656 C 1172.171875 650.792969 1172.433594 653.953125 1171.1875 657.441406 C 1170.40625 654.328125 1170.144531 651.171875 1170.398438 647.972656 Z M 1170.398438 647.972656 "/>
</g>
<mask id="mask83">
  <g filter="url(#alpha)">
<rect x="0" y="0" width="2999" height="1468" style="fill:rgb(0%,0%,0%);fill-opacity:0.152941;stroke:none;"/>
  </g>
</mask>
<clipPath id="clip84">
  <rect x="0" y="0" width="2999" height="1468"/>
</clipPath>
<g id="surface254" clip-path="url(#clip84)">
<path style=" stroke:none;fill-rule:evenodd;fill:rgb(49.019608%,49.019608%,49.019608%);fill-opacity:1;" d="M 1148.300781 651.128906 C 1150.089844 655.023438 1150.355469 659.230469 1149.089844 663.757812 C 1148.304688 659.582031 1148.042969 655.371094 1148.300781 651.128906 Z M 1148.300781 651.128906 "/>
</g>
<mask id="mask84">
  <g filter="url(#alpha)">
<rect x="0" y="0" width="2999" height="1468" style="fill:rgb(0%,0%,0%);fill-opacity:0.0392157;stroke:none;"/>
  </g>
</mask>
<clipPath id="clip85">
  <rect x="0" y="0" width="2999" height="1468"/>
</clipPath>
<g id="surface257" clip-path="url(#clip85)">
<path style=" stroke:none;fill-rule:evenodd;fill:rgb(24.705882%,25.098041%,24.705882%);fill-opacity:1;" d="M 1203.546875 657.441406 C 1205.828125 655.6875 1208.460938 655.421875 1211.4375 656.652344 C 1208.859375 657.433594 1206.226562 657.695312 1203.546875 657.441406 Z M 1203.546875 657.441406 "/>
</g>
<mask id="mask85">
  <g filter="url(#alpha)">
<rect x="0" y="0" width="2999" height="1468" style="fill:rgb(0%,0%,0%);fill-opacity:0.152941;stroke:none;"/>
  </g>
</mask>
<clipPath id="clip86">
  <rect x="0" y="0" width="2999" height="1468"/>
</clipPath>
<g id="surface260" clip-path="url(#clip86)">
<path style=" stroke:none;fill-rule:evenodd;fill:rgb(47.450981%,47.450981%,47.450981%);fill-opacity:1;" d="M 1154.613281 652.707031 C 1156.398438 656.066406 1156.660156 659.75 1155.402344 663.757812 C 1154.621094 660.109375 1154.359375 656.429688 1154.613281 652.707031 Z M 1154.613281 652.707031 "/>
</g>
<mask id="mask86">
  <g filter="url(#alpha)">
<rect x="0" y="0" width="2999" height="1468" style="fill:rgb(0%,0%,0%);fill-opacity:0.0235294;stroke:none;"/>
  </g>
</mask>
<clipPath id="clip87">
  <rect x="0" y="0" width="2999" height="1468"/>
</clipPath>
<g id="surface263" clip-path="url(#clip87)">
<path style=" stroke:none;fill-rule:evenodd;fill:rgb(36.862746%,36.862746%,36.862746%);fill-opacity:1;" d="M 1235.113281 657.441406 C 1236.730469 658.070312 1236.996094 659.121094 1235.902344 660.601562 C 1235.171875 659.664062 1234.90625 658.609375 1235.113281 657.441406 Z M 1235.113281 657.441406 "/>
</g>
<mask id="mask87">
  <g filter="url(#alpha)">
<rect x="0" y="0" width="2999" height="1468" style="fill:rgb(0%,0%,0%);fill-opacity:0.00392157;stroke:none;"/>
  </g>
</mask>
<clipPath id="clip88">
  <rect x="0" y="0" width="2999" height="1468"/>
</clipPath>
<g id="surface266" clip-path="url(#clip88)">
<path style=" stroke:none;fill-rule:evenodd;fill:rgb(74.901962%,75.294119%,74.901962%);fill-opacity:1;" d="M 1168.820312 662.179688 C 1170.925781 663.230469 1170.925781 663.230469 1168.820312 662.179688 Z M 1168.820312 662.179688 "/>
</g>
<mask id="mask88">
  <g filter="url(#alpha)">
<rect x="0" y="0" width="2999" height="1468" style="fill:rgb(0%,0%,0%);fill-opacity:0.0156863;stroke:none;"/>
  </g>
</mask>
<clipPath id="clip89">
  <rect x="0" y="0" width="2999" height="1468"/>
</clipPath>
<g id="surface269" clip-path="url(#clip89)">
<path style=" stroke:none;fill-rule:evenodd;fill:rgb(32.941177%,32.941177%,32.941177%);fill-opacity:1;" d="M 1167.242188 681.121094 C 1168.859375 681.746094 1169.125 682.796875 1168.03125 684.277344 C 1167.300781 683.339844 1167.035156 682.285156 1167.242188 681.121094 Z M 1167.242188 681.121094 "/>
</g>
<mask id="mask89">
  <g filter="url(#alpha)">
<rect x="0" y="0" width="2999" height="1468" style="fill:rgb(0%,0%,0%);fill-opacity:0.0862745;stroke:none;"/>
  </g>
</mask>
<clipPath id="clip90">
  <rect x="0" y="0" width="2999" height="1468"/>
</clipPath>
<g id="surface272" clip-path="url(#clip90)">
<path style=" stroke:none;fill-rule:evenodd;fill:rgb(74.901962%,75.294119%,74.901962%);fill-opacity:1;" d="M 1140.410156 712.691406 C 1142.511719 713.742188 1142.511719 713.742188 1140.410156 712.691406 Z M 1140.410156 712.691406 "/>
</g>
<mask id="mask90">
  <g filter="url(#alpha)">
<rect x="0" y="0" width="2999" height="1468" style="fill:rgb(0%,0%,0%);fill-opacity:0.972549;stroke:none;"/>
  </g>
</mask>
<clipPath id="clip91">
  <rect x="0" y="0" width="2999" height="1468"/>
</clipPath>
<g id="surface275" clip-path="url(#clip91)">
<path style=" stroke:none;fill-rule:evenodd;fill:rgb(63.137257%,63.529414%,64.313728%);fill-opacity:1;" d="M 875.234375 861.070312 C 871.449219 878.34375 866.710938 895.179688 861.027344 911.582031 C 842.175781 895.519531 825.078125 877.628906 809.730469 857.910156 C 795.523438 838.984375 786.578125 817.9375 782.898438 794.773438 C 809.964844 822.113281 840.742188 844.210938 875.234375 861.070312 Z M 875.234375 861.070312 "/>
</g>
<mask id="mask91">
  <g filter="url(#alpha)">
<rect x="0" y="0" width="2999" height="1468" style="fill:rgb(0%,0%,0%);fill-opacity:0.992157;stroke:none;"/>
  </g>
</mask>
<clipPath id="clip92">
  <rect x="0" y="0" width="2999" height="1468"/>
</clipPath>
<g id="surface278" clip-path="url(#clip92)">
<path style=" stroke:none;fill-rule:evenodd;fill:rgb(49.803922%,50.196081%,50.980395%);fill-opacity:1;" d="M 854.714844 936.835938 C 841.265625 989.585938 827.324219 1042.199219 812.886719 1094.6875 C 811.640625 1103.308594 814.007812 1110.671875 819.988281 1116.785156 C 730.570312 1101.269531 651.652344 1064.171875 583.226562 1005.5 C 578.429688 1001.234375 574.222656 996.5 570.597656 991.292969 C 613.113281 962.394531 653.625 930.824219 692.136719 896.585938 C 718.703125 871.617188 741.0625 843.46875 759.21875 812.136719 C 766.847656 834.234375 777.371094 854.757812 790.789062 873.695312 C 809.792969 897.171875 831.101562 918.21875 854.714844 936.835938 Z M 854.714844 936.835938 "/>
</g>
<mask id="mask92">
  <g filter="url(#alpha)">
<rect x="0" y="0" width="2999" height="1468" style="fill:rgb(0%,0%,0%);fill-opacity:0.00392157;stroke:none;"/>
  </g>
</mask>
<clipPath id="clip93">
  <rect x="0" y="0" width="2999" height="1468"/>
</clipPath>
<g id="surface281" clip-path="url(#clip93)">
<path style=" stroke:none;fill-rule:evenodd;fill:rgb(78.823531%,79.607844%,80.000001%);fill-opacity:1;" d="M 1078.851562 910.003906 C 1080.953125 911.054688 1080.953125 911.054688 1078.851562 910.003906 Z M 1078.851562 910.003906 "/>
</g>
<mask id="mask93">
  <g filter="url(#alpha)">
<rect x="0" y="0" width="2999" height="1468" style="fill:rgb(0%,0%,0%);fill-opacity:0.00392157;stroke:none;"/>
  </g>
</mask>
<clipPath id="clip94">
  <rect x="0" y="0" width="2999" height="1468"/>
</clipPath>
<g id="surface284" clip-path="url(#clip94)">
<path style=" stroke:none;fill-rule:evenodd;fill:rgb(37.254903%,37.64706%,37.254903%);fill-opacity:1;" d="M 557.972656 1015.761719 C 556.917969 1013.65625 556.917969 1013.65625 557.972656 1015.761719 Z M 557.972656 1015.761719 "/>
</g>
<mask id="mask94">
  <g filter="url(#alpha)">
<rect x="0" y="0" width="2999" height="1468" style="fill:rgb(0%,0%,0%);fill-opacity:0.0156863;stroke:none;"/>
  </g>
</mask>
<clipPath id="clip95">
  <rect x="0" y="0" width="2999" height="1468"/>
</clipPath>
<g id="surface287" clip-path="url(#clip95)">
<path style=" stroke:none;fill-rule:evenodd;fill:rgb(18.431373%,18.82353%,18.431373%);fill-opacity:1;" d="M 557.972656 1015.761719 C 559.023438 1015.761719 559.550781 1016.285156 559.550781 1017.339844 C 559.023438 1016.8125 558.496094 1016.285156 557.972656 1015.761719 Z M 557.972656 1015.761719 "/>
</g>
<mask id="mask95">
  <g filter="url(#alpha)">
<rect x="0" y="0" width="2999" height="1468" style="fill:rgb(0%,0%,0%);fill-opacity:0.0235294;stroke:none;"/>
  </g>
</mask>
<clipPath id="clip96">
  <rect x="0" y="0" width="2999" height="1468"/>
</clipPath>
<g id="surface290" clip-path="url(#clip96)">
<path style=" stroke:none;fill-rule:evenodd;fill:rgb(18.431373%,18.82353%,18.431373%);fill-opacity:1;" d="M 559.550781 1017.339844 C 560.601562 1017.339844 561.128906 1017.867188 561.128906 1018.917969 C 560.601562 1018.394531 560.074219 1017.867188 559.550781 1017.339844 Z M 559.550781 1017.339844 "/>
</g>
<mask id="mask96">
  <g filter="url(#alpha)">
<rect x="0" y="0" width="2999" height="1468" style="fill:rgb(0%,0%,0%);fill-opacity:0.0235294;stroke:none;"/>
  </g>
</mask>
<clipPath id="clip97">
  <rect x="0" y="0" width="2999" height="1468"/>
</clipPath>
<g id="surface293" clip-path="url(#clip97)">
<path style=" stroke:none;fill-rule:evenodd;fill:rgb(18.431373%,18.82353%,18.431373%);fill-opacity:1;" d="M 561.128906 1018.917969 C 562.179688 1018.917969 562.707031 1019.445312 562.707031 1020.496094 C 562.179688 1019.972656 561.65625 1019.445312 561.128906 1018.917969 Z M 561.128906 1018.917969 "/>
</g>
<mask id="mask97">
  <g filter="url(#alpha)">
<rect x="0" y="0" width="2999" height="1468" style="fill:rgb(0%,0%,0%);fill-opacity:0.0196078;stroke:none;"/>
  </g>
</mask>
<clipPath id="clip98">
  <rect x="0" y="0" width="2999" height="1468"/>
</clipPath>
<g id="surface296" clip-path="url(#clip98)">
<path style=" stroke:none;fill-rule:evenodd;fill:rgb(18.431373%,18.82353%,18.431373%);fill-opacity:1;" d="M 562.707031 1020.496094 C 563.761719 1020.496094 564.285156 1021.023438 564.285156 1022.074219 C 563.761719 1021.550781 563.234375 1021.023438 562.707031 1020.496094 Z M 562.707031 1020.496094 "/>
</g>
<mask id="mask98">
  <g filter="url(#alpha)">
<rect x="0" y="0" width="2999" height="1468" style="fill:rgb(0%,0%,0%);fill-opacity:0.00784314;stroke:none;"/>
  </g>
</mask>
<clipPath id="clip99">
  <rect x="0" y="0" width="2999" height="1468"/>
</clipPath>
<g id="surface299" clip-path="url(#clip99)">
<path style=" stroke:none;fill-rule:evenodd;fill:rgb(18.039216%,18.431373%,18.039216%);fill-opacity:1;" d="M 564.285156 1022.074219 C 565.339844 1022.074219 565.863281 1022.601562 565.863281 1023.652344 C 565.339844 1023.128906 564.8125 1022.601562 564.285156 1022.074219 Z M 564.285156 1022.074219 "/>
</g>
<mask id="mask99">
  <g filter="url(#alpha)">
<rect x="0" y="0" width="2999" height="1468" style="fill:rgb(0%,0%,0%);fill-opacity:0.00784314;stroke:none;"/>
  </g>
</mask>
<clipPath id="clip100">
  <rect x="0" y="0" width="2999" height="1468"/>
</clipPath>
<g id="surface302" clip-path="url(#clip100)">
<path style=" stroke:none;fill-rule:evenodd;fill:rgb(30.980393%,31.37255%,30.980393%);fill-opacity:1;" d="M 565.863281 1023.652344 C 567.96875 1024.707031 567.96875 1024.707031 565.863281 1023.652344 Z M 565.863281 1023.652344 "/>
</g>
<mask id="mask100">
  <g filter="url(#alpha)">
<rect x="0" y="0" width="2999" height="1468" style="fill:rgb(0%,0%,0%);fill-opacity:0.027451;stroke:none;"/>
  </g>
</mask>
<clipPath id="clip101">
  <rect x="0" y="0" width="2999" height="1468"/>
</clipPath>
<g id="surface305" clip-path="url(#clip101)">
<path style=" stroke:none;fill-rule:evenodd;fill:rgb(60.392159%,60.784316%,61.56863%);fill-opacity:1;" d="M 501.148438 1044.175781 C 502.761719 1046.371094 502.234375 1048.476562 499.570312 1050.488281 C 499.042969 1049.960938 498.515625 1049.433594 497.992188 1048.910156 C 499.085938 1047.304688 500.136719 1045.722656 501.148438 1044.175781 Z M 501.148438 1044.175781 "/>
</g>
<mask id="mask101">
  <g filter="url(#alpha)">
<rect x="0" y="0" width="2999" height="1468" style="fill:rgb(0%,0%,0%);fill-opacity:0.0156863;stroke:none;"/>
  </g>
</mask>
<clipPath id="clip102">
  <rect x="0" y="0" width="2999" height="1468"/>
</clipPath>
<g id="surface308" clip-path="url(#clip102)">
<path style=" stroke:none;fill-rule:evenodd;fill:rgb(65.098041%,65.882355%,66.274512%);fill-opacity:1;" d="M 474.316406 1052.066406 C 481.25 1052 481.773438 1052.789062 475.894531 1054.433594 C 465.003906 1057.492188 453.957031 1059.070312 442.746094 1059.167969 C 453.300781 1056.066406 463.820312 1053.695312 474.316406 1052.066406 Z M 474.316406 1052.066406 "/>
</g>
<mask id="mask102">
  <g filter="url(#alpha)">
<rect x="0" y="0" width="2999" height="1468" style="fill:rgb(0%,0%,0%);fill-opacity:0.0431373;stroke:none;"/>
  </g>
</mask>
<clipPath id="clip103">
  <rect x="0" y="0" width="2999" height="1468"/>
</clipPath>
<g id="surface311" clip-path="url(#clip103)">
<path style=" stroke:none;fill-rule:evenodd;fill:rgb(72.549021%,72.549021%,72.549021%);fill-opacity:1;" d="M 565.863281 1059.960938 C 567.480469 1060.585938 567.746094 1061.636719 566.652344 1063.117188 C 565.921875 1062.179688 565.65625 1061.125 565.863281 1059.960938 Z M 565.863281 1059.960938 "/>
</g>
<mask id="mask103">
  <g filter="url(#alpha)">
<rect x="0" y="0" width="2999" height="1468" style="fill:rgb(0%,0%,0%);fill-opacity:0.0784314;stroke:none;"/>
  </g>
</mask>
<clipPath id="clip104">
  <rect x="0" y="0" width="2999" height="1468"/>
</clipPath>
<g id="surface314" clip-path="url(#clip104)">
<path style=" stroke:none;fill-rule:evenodd;fill:rgb(58.039218%,58.039218%,58.039218%);fill-opacity:1;" d="M 564.285156 1064.695312 C 565.902344 1065.320312 566.167969 1066.371094 565.074219 1067.851562 C 564.34375 1066.914062 564.078125 1065.859375 564.285156 1064.695312 Z M 564.285156 1064.695312 "/>
</g>
<mask id="mask104">
  <g filter="url(#alpha)">
<rect x="0" y="0" width="2999" height="1468" style="fill:rgb(0%,0%,0%);fill-opacity:0.0196078;stroke:none;"/>
  </g>
</mask>
<clipPath id="clip105">
  <rect x="0" y="0" width="2999" height="1468"/>
</clipPath>
<g id="surface317" clip-path="url(#clip105)">
<path style=" stroke:none;fill-rule:evenodd;fill:rgb(29.803923%,29.803923%,29.803923%);fill-opacity:1;" d="M 883.125 1149.933594 C 889.140625 1148.125 895.457031 1147.863281 902.066406 1149.144531 C 895.777344 1149.933594 889.460938 1150.195312 883.125 1149.933594 Z M 883.125 1149.933594 "/>
</g>
<mask id="mask105">
  <g filter="url(#alpha)">
<rect x="0" y="0" width="2999" height="1468" style="fill:rgb(0%,0%,0%);fill-opacity:0.0196078;stroke:none;"/>
  </g>
</mask>
<clipPath id="clip106">
  <rect x="0" y="0" width="2999" height="1468"/>
</clipPath>
<g id="surface320" clip-path="url(#clip106)">
<path style=" stroke:none;fill-rule:evenodd;fill:rgb(65.098041%,65.882355%,66.274512%);fill-opacity:1;" d="M 438.011719 1172.03125 C 444.894531 1170.039062 451.734375 1170.828125 458.53125 1174.398438 C 451.769531 1173.683594 444.929688 1172.894531 438.011719 1172.03125 Z M 438.011719 1172.03125 "/>
</g>
<mask id="mask106">
  <g filter="url(#alpha)">
<rect x="0" y="0" width="2999" height="1468" style="fill:rgb(0%,0%,0%);fill-opacity:0.0745098;stroke:none;"/>
  </g>
</mask>
<clipPath id="clip107">
  <rect x="0" y="0" width="2999" height="1468"/>
</clipPath>
<g id="surface323" clip-path="url(#clip107)">
<path style=" stroke:none;fill-rule:evenodd;fill:rgb(49.411765%,49.803922%,49.411765%);fill-opacity:1;" d="M 564.285156 1214.652344 C 566.390625 1215.703125 566.390625 1215.703125 564.285156 1214.652344 Z M 564.285156 1214.652344 "/>
</g>
<mask id="mask107">
  <g filter="url(#alpha)">
<rect x="0" y="0" width="2999" height="1468" style="fill:rgb(0%,0%,0%);fill-opacity:0.145098;stroke:none;"/>
  </g>
</mask>
<clipPath id="clip108">
  <rect x="0" y="0" width="2999" height="1468"/>
</clipPath>
<g id="surface326" clip-path="url(#clip108)">
<path style=" stroke:none;fill-rule:evenodd;fill:rgb(43.529412%,43.921569%,43.529412%);fill-opacity:1;" d="M 562.707031 1217.808594 C 564.8125 1218.863281 564.8125 1218.863281 562.707031 1217.808594 Z M 562.707031 1217.808594 "/>
</g>
<mask id="mask108">
  <g filter="url(#alpha)">
<rect x="0" y="0" width="2999" height="1468" style="fill:rgb(0%,0%,0%);fill-opacity:0.0117647;stroke:none;"/>
  </g>
</mask>
<clipPath id="clip109">
  <rect x="0" y="0" width="2999" height="1468"/>
</clipPath>
<g id="surface329" clip-path="url(#clip109)">
<path style=" stroke:none;fill-rule:evenodd;fill:rgb(56.078434%,56.470591%,56.078434%);fill-opacity:1;" d="M 854.714844 1220.964844 C 853.664062 1218.863281 853.664062 1218.863281 854.714844 1220.964844 Z M 854.714844 1220.964844 "/>
</g>
<mask id="mask109">
  <g filter="url(#alpha)">
<rect x="0" y="0" width="2999" height="1468" style="fill:rgb(0%,0%,0%);fill-opacity:0.117647;stroke:none;"/>
  </g>
</mask>
<clipPath id="clip110">
  <rect x="0" y="0" width="2999" height="1468"/>
</clipPath>
<g id="surface332" clip-path="url(#clip110)">
<path style=" stroke:none;fill-rule:evenodd;fill:rgb(68.627453%,69.01961%,68.627453%);fill-opacity:1;" d="M 561.128906 1220.964844 C 563.234375 1222.019531 563.234375 1222.019531 561.128906 1220.964844 Z M 561.128906 1220.964844 "/>
</g>
<mask id="mask110">
  <g filter="url(#alpha)">
<rect x="0" y="0" width="2999" height="1468" style="fill:rgb(0%,0%,0%);fill-opacity:0.0117647;stroke:none;"/>
  </g>
</mask>
<clipPath id="clip111">
  <rect x="0" y="0" width="2999" height="1468"/>
</clipPath>
<g id="surface335" clip-path="url(#clip111)">
<path style=" stroke:none;fill-rule:evenodd;fill:rgb(31.37255%,31.764707%,31.37255%);fill-opacity:1;" d="M 854.714844 1220.964844 C 856.820312 1222.019531 856.820312 1222.019531 854.714844 1220.964844 Z M 854.714844 1220.964844 "/>
</g>
<mask id="mask111">
  <g filter="url(#alpha)">
<rect x="0" y="0" width="2999" height="1468" style="fill:rgb(0%,0%,0%);fill-opacity:0.105882;stroke:none;"/>
  </g>
</mask>
<clipPath id="clip112">
  <rect x="0" y="0" width="2999" height="1468"/>
</clipPath>
<g id="surface338" clip-path="url(#clip112)">
<path style=" stroke:none;fill-rule:evenodd;fill:rgb(30.588236%,30.980393%,30.588236%);fill-opacity:1;" d="M 561.128906 1222.542969 C 560.074219 1223.597656 560.074219 1223.597656 561.128906 1222.542969 Z M 561.128906 1222.542969 "/>
</g>
<mask id="mask112">
  <g filter="url(#alpha)">
<rect x="0" y="0" width="2999" height="1468" style="fill:rgb(0%,0%,0%);fill-opacity:0.0235294;stroke:none;"/>
  </g>
</mask>
<clipPath id="clip113">
  <rect x="0" y="0" width="2999" height="1468"/>
</clipPath>
<g id="surface341" clip-path="url(#clip113)">
<path style=" stroke:none;fill-rule:evenodd;fill:rgb(18.039216%,18.431373%,18.039216%);fill-opacity:1;" d="M 559.550781 1224.121094 C 558.496094 1225.175781 558.496094 1225.175781 559.550781 1224.121094 Z M 559.550781 1224.121094 "/>
</g>
<mask id="mask113">
  <g filter="url(#alpha)">
<rect x="0" y="0" width="2999" height="1468" style="fill:rgb(0%,0%,0%);fill-opacity:0.0470588;stroke:none;"/>
  </g>
</mask>
<clipPath id="clip114">
  <rect x="0" y="0" width="2999" height="1468"/>
</clipPath>
<g id="surface344" clip-path="url(#clip114)">
<path style=" stroke:none;fill-rule:evenodd;fill:rgb(81.176472%,81.568629%,81.176472%);fill-opacity:1;" d="M 556.394531 1227.28125 C 558.496094 1228.332031 558.496094 1228.332031 556.394531 1227.28125 Z M 556.394531 1227.28125 "/>
</g>
<mask id="mask114">
  <g filter="url(#alpha)">
<rect x="0" y="0" width="2999" height="1468" style="fill:rgb(0%,0%,0%);fill-opacity:0.0235294;stroke:none;"/>
  </g>
</mask>
<clipPath id="clip115">
  <rect x="0" y="0" width="2999" height="1468"/>
</clipPath>
<g id="surface347" clip-path="url(#clip115)">
<path style=" stroke:none;fill-rule:evenodd;fill:rgb(18.431373%,18.82353%,18.431373%);fill-opacity:1;" d="M 553.238281 1228.859375 C 555.339844 1229.910156 555.339844 1229.910156 553.238281 1228.859375 Z M 553.238281 1228.859375 "/>
</g>
<mask id="mask115">
  <g filter="url(#alpha)">
<rect x="0" y="0" width="2999" height="1468" style="fill:rgb(0%,0%,0%);fill-opacity:0.0509804;stroke:none;"/>
  </g>
</mask>
<clipPath id="clip116">
  <rect x="0" y="0" width="2999" height="1468"/>
</clipPath>
<g id="surface350" clip-path="url(#clip116)">
<path style=" stroke:none;fill-rule:evenodd;fill:rgb(43.137255%,43.529412%,43.137255%);fill-opacity:1;" d="M 553.238281 1230.4375 C 552.183594 1231.488281 552.183594 1231.488281 553.238281 1230.4375 Z M 553.238281 1230.4375 "/>
</g>
<mask id="mask116">
  <g filter="url(#alpha)">
<rect x="0" y="0" width="2999" height="1468" style="fill:rgb(0%,0%,0%);fill-opacity:0.0117647;stroke:none;"/>
  </g>
</mask>
<clipPath id="clip117">
  <rect x="0" y="0" width="2999" height="1468"/>
</clipPath>
<g id="surface353" clip-path="url(#clip117)">
<path style=" stroke:none;fill-rule:evenodd;fill:rgb(37.254903%,37.64706%,37.254903%);fill-opacity:1;" d="M 865.765625 1230.4375 C 867.867188 1231.488281 867.867188 1231.488281 865.765625 1230.4375 Z M 865.765625 1230.4375 "/>
</g>
<mask id="mask117">
  <g filter="url(#alpha)">
<rect x="0" y="0" width="2999" height="1468" style="fill:rgb(0%,0%,0%);fill-opacity:0.0784314;stroke:none;"/>
  </g>
</mask>
<clipPath id="clip118">
  <rect x="0" y="0" width="2999" height="1468"/>
</clipPath>
<g id="surface356" clip-path="url(#clip118)">
<path style=" stroke:none;fill-rule:evenodd;fill:rgb(37.254903%,37.64706%,37.254903%);fill-opacity:1;" d="M 870.5 1233.59375 C 869.445312 1231.488281 869.445312 1231.488281 870.5 1233.59375 Z M 870.5 1233.59375 "/>
</g>
<mask id="mask118">
  <g filter="url(#alpha)">
<rect x="0" y="0" width="2999" height="1468" style="fill:rgb(0%,0%,0%);fill-opacity:0.00392157;stroke:none;"/>
  </g>
</mask>
<clipPath id="clip119">
  <rect x="0" y="0" width="2999" height="1468"/>
</clipPath>
<g id="surface359" clip-path="url(#clip119)">
<path style=" stroke:none;fill-rule:evenodd;fill:rgb(37.64706%,37.64706%,37.64706%);fill-opacity:1;" d="M 870.5 1233.59375 C 872.117188 1234.21875 872.378906 1235.273438 871.289062 1236.75 C 870.554688 1235.8125 870.292969 1234.761719 870.5 1233.59375 Z M 870.5 1233.59375 "/>
</g>
</defs>
<g id="surface1">
<use xlink:href="#surface5" mask="url(#mask0)"/>
<use xlink:href="#surface8" mask="url(#mask1)"/>
<use xlink:href="#surface11" mask="url(#mask2)"/>
<path style=" stroke:none;fill-rule:evenodd;fill:rgb(81.176472%,81.568629%,82.352942%);fill-opacity:1;" d="M 913.117188 153.902344 C 1023.609375 153.640625 1134.097656 153.902344 1244.585938 154.691406 C 1256.546875 158.496094 1262.859375 166.652344 1263.527344 179.160156 C 1182.25 484.285156 1100.960938 789.457031 1019.660156 1094.6875 C 1016.617188 1102.464844 1011.09375 1107.460938 1003.085938 1109.683594 C 943.105469 1110.734375 883.125 1110.734375 823.148438 1109.683594 C 819.464844 1107.578125 817.886719 1104.421875 818.410156 1100.210938 C 895.023438 812.195312 971.839844 524.121094 1048.859375 235.984375 C 1049.035156 233.027344 1047.984375 230.660156 1045.703125 228.882812 C 994.667969 228.355469 943.632812 227.828125 892.597656 227.304688 C 888.839844 224.921875 887.261719 221.503906 887.863281 217.042969 C 891.0625 200.558594 895.007812 184.25 899.699219 168.109375 C 903.429688 162.542969 907.902344 157.808594 913.117188 153.902344 Z M 913.117188 153.902344 "/>
<path style=" stroke:none;fill-rule:evenodd;fill:rgb(81.176472%,81.568629%,82.352942%);fill-opacity:1;" d="M 1514.496094 153.902344 C 1637.613281 153.640625 1760.730469 153.902344 1883.84375 154.691406 C 1931.925781 165.867188 1957.714844 196.121094 1961.1875 245.457031 C 1960.652344 257.121094 1959.339844 268.695312 1957.242188 280.183594 C 1894.421875 511.996094 1832.339844 744.035156 1770.988281 976.300781 C 1754.195312 1028.882812 1721.316406 1068.082031 1672.335938 1093.898438 C 1659.015625 1099.566406 1645.332031 1104.300781 1631.296875 1108.101562 C 1566.617188 1109.902344 1501.902344 1110.691406 1437.152344 1110.472656 C 1374.484375 1110.710938 1311.875 1109.921875 1249.320312 1108.101562 C 1193.792969 1088.367188 1170.90625 1049.167969 1180.660156 990.503906 C 1191.539062 946.449219 1203.640625 902.777344 1216.960938 859.492188 C 1220.535156 854.859375 1225.007812 851.441406 1230.378906 849.230469 C 1289.832031 848.175781 1349.285156 848.175781 1408.742188 849.230469 C 1411 849.964844 1412.839844 851.28125 1414.265625 853.175781 C 1415.316406 857.386719 1415.316406 861.59375 1414.265625 865.804688 C 1401.355469 908.769531 1390.042969 952.179688 1380.328125 996.03125 C 1380.660156 1013.558594 1388.554688 1026.1875 1404.003906 1033.914062 C 1422.863281 1035.691406 1441.800781 1036.480469 1460.828125 1036.28125 C 1481.402344 1036.429688 1501.921875 1035.640625 1522.386719 1033.914062 C 1548.402344 1024.773438 1563.925781 1006.621094 1568.949219 979.457031 C 1596.808594 877.507812 1623.644531 775.433594 1649.449219 673.226562 C 1648.660156 672.4375 1647.871094 671.648438 1647.082031 670.859375 C 1554.957031 670.824219 1462.882812 669.769531 1370.859375 667.703125 C 1338.714844 659.410156 1315.828125 640.203125 1302.199219 610.089844 C 1296.371094 589.820312 1295.316406 569.300781 1299.039062 548.527344 C 1323.84375 453.515625 1349.625 358.804688 1376.382812 264.398438 C 1397.78125 219.320312 1431.191406 186.433594 1476.613281 165.742188 C 1489.121094 160.785156 1501.75 156.835938 1514.496094 153.902344 Z M 1628.140625 234.40625 C 1606.992188 238.957031 1591.457031 251.0625 1581.578125 270.710938 C 1555.257812 365.203125 1529.738281 459.914062 1505.023438 554.839844 C 1506.058594 569.847656 1513.425781 580.109375 1527.121094 585.621094 C 1573.882812 587.925781 1620.707031 588.714844 1667.601562 587.988281 C 1693.945312 486.273438 1721.046875 384.722656 1748.890625 283.339844 C 1751.164062 275.035156 1751.683594 266.613281 1750.46875 258.082031 C 1746.679688 244.824219 1738 237.195312 1724.425781 235.195312 C 1692.335938 234.40625 1660.246094 234.144531 1628.140625 234.40625 Z M 1628.140625 234.40625 "/>
<path style=" stroke:none;fill-rule:evenodd;fill:rgb(81.176472%,81.568629%,82.352942%);fill-opacity:1;" d="M 2262.667969 153.902344 C 2368.453125 153.164062 2474.207031 153.953125 2579.929688 156.269531 C 2625.402344 167.550781 2655.140625 195.699219 2669.109375 240.71875 C 2672.503906 264.464844 2671.96875 288.140625 2667.53125 311.753906 C 2609.964844 523.582031 2553.144531 735.625 2497.0625 947.886719 C 2483.898438 991.054688 2459.953125 1027.09375 2425.242188 1056.011719 C 2399.738281 1077.980469 2370.789062 1093.765625 2338.429688 1103.367188 C 2327.570312 1106.371094 2316.523438 1108.476562 2305.285156 1109.683594 C 2205.84375 1110.734375 2106.402344 1110.734375 2006.960938 1109.683594 C 1949.824219 1098.84375 1915.886719 1064.90625 1905.152344 1007.867188 C 1902.613281 983.109375 1905.25 958.90625 1913.046875 935.257812 C 1968.292969 729 2023.535156 522.746094 2078.78125 316.488281 C 2095.71875 265.867188 2125.976562 225.089844 2169.539062 194.15625 C 2197.652344 173.777344 2228.699219 160.359375 2262.667969 153.902344 Z M 2360.527344 235.984375 C 2325.046875 245.941406 2301.636719 268.566406 2290.289062 303.859375 C 2229.582031 528.828125 2169.855469 754.027344 2111.136719 979.457031 C 2112.117188 1001.71875 2122.644531 1017.242188 2142.707031 1026.023438 C 2166.304688 1028.546875 2189.980469 1029.074219 2213.734375 1027.601562 C 2247.859375 1019.785156 2271.269531 999.523438 2283.976562 966.828125 C 2343.957031 742.683594 2403.933594 518.535156 2463.914062 294.390625 C 2464.972656 287.023438 2464.972656 279.65625 2463.914062 272.289062 C 2459.558594 253.730469 2448.242188 241.890625 2429.980469 236.773438 C 2406.839844 235.984375 2383.683594 235.722656 2360.527344 235.984375 Z M 2360.527344 235.984375 "/>
<use xlink:href="#surface14" mask="url(#mask3)"/>
<use xlink:href="#surface17" mask="url(#mask4)"/>
<use xlink:href="#surface20" mask="url(#mask5)"/>
<use xlink:href="#surface23" mask="url(#mask6)"/>
<use xlink:href="#surface26" mask="url(#mask7)"/>
<use xlink:href="#surface29" mask="url(#mask8)"/>
<use xlink:href="#surface32" mask="url(#mask9)"/>
<use xlink:href="#surface35" mask="url(#mask10)"/>
<use xlink:href="#surface38" mask="url(#mask11)"/>
<use xlink:href="#surface41" mask="url(#mask12)"/>
<use xlink:href="#surface44" mask="url(#mask13)"/>
<use xlink:href="#surface47" mask="url(#mask14)"/>
<use xlink:href="#surface50" mask="url(#mask15)"/>
<use xlink:href="#surface53" mask="url(#mask16)"/>
<use xlink:href="#surface56" mask="url(#mask17)"/>
<use xlink:href="#surface59" mask="url(#mask18)"/>
<use xlink:href="#surface62" mask="url(#mask19)"/>
<use xlink:href="#surface65" mask="url(#mask20)"/>
<use xlink:href="#surface68" mask="url(#mask21)"/>
<use xlink:href="#surface71" mask="url(#mask22)"/>
<use xlink:href="#surface74" mask="url(#mask23)"/>
<use xlink:href="#surface77" mask="url(#mask24)"/>
<use xlink:href="#surface80" mask="url(#mask25)"/>
<use xlink:href="#surface83" mask="url(#mask26)"/>
<use xlink:href="#surface86" mask="url(#mask27)"/>
<use xlink:href="#surface89" mask="url(#mask28)"/>
<use xlink:href="#surface92" mask="url(#mask29)"/>
<use xlink:href="#surface95" mask="url(#mask30)"/>
<use xlink:href="#surface98" mask="url(#mask31)"/>
<use xlink:href="#surface101" mask="url(#mask32)"/>
<use xlink:href="#surface104" mask="url(#mask33)"/>
<use xlink:href="#surface107" mask="url(#mask34)"/>
<use xlink:href="#surface110" mask="url(#mask35)"/>
<use xlink:href="#surface113" mask="url(#mask36)"/>
<use xlink:href="#surface116" mask="url(#mask37)"/>
<use xlink:href="#surface119" mask="url(#mask38)"/>
<use xlink:href="#surface122" mask="url(#mask39)"/>
<use xlink:href="#surface125" mask="url(#mask40)"/>
<use xlink:href="#surface128" mask="url(#mask41)"/>
<use xlink:href="#surface131" mask="url(#mask42)"/>
<use xlink:href="#surface134" mask="url(#mask43)"/>
<use xlink:href="#surface137" mask="url(#mask44)"/>
<use xlink:href="#surface140" mask="url(#mask45)"/>
<use xlink:href="#surface143" mask="url(#mask46)"/>
<use xlink:href="#surface146" mask="url(#mask47)"/>
<use xlink:href="#surface149" mask="url(#mask48)"/>
<use xlink:href="#surface152" mask="url(#mask49)"/>
<use xlink:href="#surface155" mask="url(#mask50)"/>
<use xlink:href="#surface158" mask="url(#mask51)"/>
<use xlink:href="#surface161" mask="url(#mask52)"/>
<use xlink:href="#surface164" mask="url(#mask53)"/>
<use xlink:href="#surface167" mask="url(#mask54)"/>
<use xlink:href="#surface170" mask="url(#mask55)"/>
<use xlink:href="#surface173" mask="url(#mask56)"/>
<use xlink:href="#surface176" mask="url(#mask57)"/>
<use xlink:href="#surface179" mask="url(#mask58)"/>
<use xlink:href="#surface182" mask="url(#mask59)"/>
<use xlink:href="#surface185" mask="url(#mask60)"/>
<use xlink:href="#surface188" mask="url(#mask61)"/>
<use xlink:href="#surface191" mask="url(#mask62)"/>
<use xlink:href="#surface194" mask="url(#mask63)"/>
<path style=" stroke:none;fill-rule:evenodd;fill:rgb(81.176472%,81.568629%,82.352942%);fill-opacity:1;" d="M 927.324219 662.179688 C 927.496094 663.152344 928.023438 663.941406 928.902344 664.546875 C 913.058594 720.28125 898.066406 776.316406 883.914062 832.65625 C 882.226562 839.074219 879.859375 844.863281 876.8125 850.019531 C 845.324219 833.023438 816.648438 811.976562 790.789062 786.878906 C 786.195312 781.371094 781.984375 775.582031 778.160156 769.515625 C 781.476562 749.726562 783.84375 729.734375 785.265625 709.535156 C 786.472656 669.277344 773.84375 634.289062 747.382812 604.5625 C 732.71875 600.949219 726.671875 606.472656 729.230469 621.136719 C 751.058594 646.109375 761.320312 675.3125 760.007812 708.742188 C 758.019531 762.160156 739.078125 808.460938 703.1875 847.652344 C 684.898438 854.554688 668.058594 851.925781 652.675781 839.757812 C 628.109375 817.773438 609.957031 791.199219 598.222656 760.046875 C 582.375 721.070312 574.746094 680.554688 575.335938 638.5 C 591.691406 633.988281 603.53125 623.992188 610.847656 608.507812 C 614.097656 599.460938 616.464844 590.253906 617.953125 580.886719 C 691.085938 579.832031 764.21875 579.832031 837.351562 580.886719 C 855.242188 598.773438 873.128906 616.664062 891.019531 634.554688 C 902.476562 644.710938 914.578125 653.917969 927.324219 662.179688 Z M 606.902344 671.648438 C 621.496094 670.699219 625.703125 676.75 619.53125 689.800781 C 606.503906 694.664062 600.976562 690.195312 602.957031 676.386719 C 604.605469 675.007812 605.921875 673.429688 606.902344 671.648438 Z M 835.773438 748.996094 C 848.210938 748.546875 852.683594 754.335938 849.191406 766.359375 C 842.195312 773.058594 835.882812 772.53125 830.25 764.78125 C 828.285156 758.046875 830.125 752.789062 835.773438 748.996094 Z M 654.253906 760.046875 C 665.730469 759.3125 670.203125 764.574219 667.671875 775.832031 C 664.796875 781.339844 660.324219 783.179688 654.253906 781.355469 C 648.535156 777.945312 646.691406 772.945312 648.730469 766.359375 C 649.820312 763.4375 651.660156 761.332031 654.253906 760.046875 Z M 654.253906 760.046875 "/>
<use xlink:href="#surface197" mask="url(#mask64)"/>
<use xlink:href="#surface200" mask="url(#mask65)"/>
<use xlink:href="#surface203" mask="url(#mask66)"/>
<use xlink:href="#surface206" mask="url(#mask67)"/>
<use xlink:href="#surface209" mask="url(#mask68)"/>
<use xlink:href="#surface212" mask="url(#mask69)"/>
<use xlink:href="#surface215" mask="url(#mask70)"/>
<use xlink:href="#surface218" mask="url(#mask71)"/>
<use xlink:href="#surface221" mask="url(#mask72)"/>
<use xlink:href="#surface224" mask="url(#mask73)"/>
<use xlink:href="#surface227" mask="url(#mask74)"/>
<use xlink:href="#surface230" mask="url(#mask75)"/>
<use xlink:href="#surface233" mask="url(#mask76)"/>
<use xlink:href="#surface236" mask="url(#mask77)"/>
<use xlink:href="#surface239" mask="url(#mask78)"/>
<use xlink:href="#surface242" mask="url(#mask79)"/>
<use xlink:href="#surface245" mask="url(#mask80)"/>
<use xlink:href="#surface248" mask="url(#mask81)"/>
<use xlink:href="#surface251" mask="url(#mask82)"/>
<use xlink:href="#surface254" mask="url(#mask83)"/>
<use xlink:href="#surface257" mask="url(#mask84)"/>
<use xlink:href="#surface260" mask="url(#mask85)"/>
<use xlink:href="#surface263" mask="url(#mask86)"/>
<use xlink:href="#surface266" mask="url(#mask87)"/>
<use xlink:href="#surface269" mask="url(#mask88)"/>
<use xlink:href="#surface272" mask="url(#mask89)"/>
<use xlink:href="#surface275" mask="url(#mask90)"/>
<use xlink:href="#surface278" mask="url(#mask91)"/>
<use xlink:href="#surface281" mask="url(#mask92)"/>
<use xlink:href="#surface284" mask="url(#mask93)"/>
<use xlink:href="#surface287" mask="url(#mask94)"/>
<use xlink:href="#surface290" mask="url(#mask95)"/>
<use xlink:href="#surface293" mask="url(#mask96)"/>
<use xlink:href="#surface296" mask="url(#mask97)"/>
<use xlink:href="#surface299" mask="url(#mask98)"/>
<use xlink:href="#surface302" mask="url(#mask99)"/>
<use xlink:href="#surface305" mask="url(#mask100)"/>
<use xlink:href="#surface308" mask="url(#mask101)"/>
<use xlink:href="#surface311" mask="url(#mask102)"/>
<use xlink:href="#surface314" mask="url(#mask103)"/>
<use xlink:href="#surface317" mask="url(#mask104)"/>
<use xlink:href="#surface320" mask="url(#mask105)"/>
<use xlink:href="#surface323" mask="url(#mask106)"/>
<use xlink:href="#surface326" mask="url(#mask107)"/>
<use xlink:href="#surface329" mask="url(#mask108)"/>
<use xlink:href="#surface332" mask="url(#mask109)"/>
<use xlink:href="#surface335" mask="url(#mask110)"/>
<use xlink:href="#surface338" mask="url(#mask111)"/>
<use xlink:href="#surface341" mask="url(#mask112)"/>
<use xlink:href="#surface344" mask="url(#mask113)"/>
<use xlink:href="#surface347" mask="url(#mask114)"/>
<use xlink:href="#surface350" mask="url(#mask115)"/>
<use xlink:href="#surface353" mask="url(#mask116)"/>
<use xlink:href="#surface356" mask="url(#mask117)"/>
<use xlink:href="#surface359" mask="url(#mask118)"/>
</g>
</svg>
