<?xml version="1.0" encoding="UTF-8"?>
<!DOCTYPE svg PUBLIC "-//W3C//DTD SVG 1.1//EN" "http://www.w3.org/Graphics/SVG/1.1/DTD/svg11.dtd">
<svg xmlns="http://www.w3.org/2000/svg" version="1.1" width="1900px" height="930px" style="shape-rendering:geometricPrecision; text-rendering:geometricPrecision; image-rendering:optimizeQuality; fill-rule:evenodd; clip-rule:evenodd" xmlns:xlink="http://www.w3.org/1999/xlink">
<g><path style="opacity:0.889" fill="#090909" d="M 519.5,707.5 C 515.71,703.628 514.21,698.962 515,693.5C 524.146,660.25 532.979,626.917 541.5,593.5C 542.833,588.167 544.167,582.833 545.5,577.5C 549.101,567.11 552.101,556.443 554.5,545.5C 554.993,543.194 555.326,540.861 555.5,538.5C 557.431,535.234 558.931,531.567 560,527.5C 568.964,491.808 578.464,456.308 588.5,421C 587.944,420.617 587.611,420.117 587.5,419.5C 611.808,329.611 636.141,239.611 660.5,149.5C 628.505,148.667 596.505,148.167 564.5,148C 562.416,147.303 560.749,146.136 559.5,144.5C 558.588,140.869 558.421,137.203 559,133.5C 562.026,122.866 564.859,112.199 567.5,101.5C 570.782,97.1838 575.116,94.3504 580.5,93C 649.5,92.3333 718.5,92.3333 787.5,93C 801.205,96.5543 806.705,105.388 804,119.5C 753.226,311.316 701.892,503.316 650,695.5C 647.5,700.667 643.667,704.5 638.5,707C 601.823,707.198 565.156,707.698 528.5,708.5C 525.483,708.232 522.483,707.898 519.5,707.5 Z"/></g>
<g><path style="opacity:0.868" fill="#060607" d="M 966.5,92.5 C 1042.86,92.0242 1119.19,92.5242 1195.5,94C 1229.18,102.019 1246.18,123.352 1246.5,158C 1246.49,163.88 1245.99,169.713 1245,175.5C 1204.47,327.964 1163.47,480.298 1122,632.5C 1103.66,672.841 1072.83,697.674 1029.5,707C 951.5,707.667 873.5,707.667 795.5,707C 766.892,701.726 749.392,684.892 743,656.5C 741.596,646.256 741.93,635.922 744,625.5C 751.156,599.21 758.156,572.877 765,546.5C 767.263,539.903 771.763,535.736 778.5,534C 817.167,533.333 855.833,533.333 894.5,534C 896.939,534.774 898.773,536.274 900,538.5C 900.667,542.167 900.667,545.833 900,549.5C 892.441,576.905 885.274,604.405 878.5,632C 879.776,640.928 884.442,647.262 892.5,651C 915.5,651.667 938.5,651.667 961.5,651C 975.737,646.429 984.904,636.929 989,622.5C 1006.48,557.895 1023.65,493.228 1040.5,428.5C 984.832,428.667 929.166,428.5 873.5,428C 837.987,421.482 818.987,400.149 816.5,364C 817.204,356.458 818.204,348.958 819.5,341.5C 834.639,286.948 849.472,232.281 864,177.5C 877.167,140.331 902.001,114.164 938.5,99C 947.751,95.8541 957.084,93.6875 966.5,92.5 Z M 1031.5,148.5 C 1051.84,148.333 1072.17,148.5 1092.5,149C 1101.1,150.267 1106.6,155.1 1109,163.5C 1109.77,168.904 1109.44,174.238 1108,179.5C 1090.36,243.728 1073.19,308.062 1056.5,372.5C 1026.79,372.96 997.125,372.46 967.5,371C 958.822,367.507 954.155,361.007 953.5,351.5C 969.157,291.362 985.324,231.362 1002,171.5C 1008.26,159.051 1018.1,151.384 1031.5,148.5 Z"/></g>
<g><path style="opacity:0.866" fill="#070808" d="M 1442.5,92.5 C 1502.5,92.3333 1562.5,92.5 1622.5,93C 1669.38,98.5449 1694.38,124.878 1697.5,172C 1697.36,181.295 1696.2,190.462 1694,199.5C 1657.84,333.79 1621.84,468.123 1586,602.5C 1570.8,647.036 1541.64,678.869 1498.5,698C 1487.89,702.403 1476.89,705.403 1465.5,707C 1400.5,707.667 1335.5,707.667 1270.5,707C 1232.93,700.764 1210.43,678.931 1203,641.5C 1201.46,625.572 1202.79,609.906 1207,594.5C 1243.38,457.647 1280.38,320.98 1318,184.5C 1338.66,141.182 1371.82,112.016 1417.5,97C 1425.9,95.0466 1434.23,93.5466 1442.5,92.5 Z M 1495.5,149.5 C 1510.17,149.333 1524.84,149.5 1539.5,150C 1551.07,153.242 1558.24,160.742 1561,172.5C 1561.67,177.167 1561.67,181.833 1561,186.5C 1523,328.5 1485,470.5 1447,612.5C 1438.95,633.214 1424.12,646.048 1402.5,651C 1387.45,651.934 1372.45,651.6 1357.5,650C 1344.79,644.439 1338.12,634.605 1337.5,620.5C 1374.7,477.688 1412.54,335.021 1451,192.5C 1458.19,170.14 1473.02,155.807 1495.5,149.5 Z"/></g>
<g><path style="opacity:1" fill="#cfd0d2" d="M 578.5,97.5 C 648.501,97.3333 718.501,97.5 788.5,98C 796.078,100.409 800.078,105.576 800.5,113.5C 749.008,306.801 697.508,500.134 646,693.5C 644.073,698.428 640.573,701.594 635.5,703C 597.5,703.667 559.5,703.667 521.5,703C 519.167,701.667 518.167,699.667 518.5,697C 567.038,514.538 615.705,332.038 664.5,149.5C 664.61,147.626 663.944,146.126 662.5,145C 630.167,144.667 597.833,144.333 565.5,144C 563.119,142.491 562.119,140.325 562.5,137.5C 564.527,127.057 567.027,116.724 570,106.5C 572.362,102.973 575.196,99.9734 578.5,97.5 Z"/></g>
<g><path style="opacity:1" fill="#cfd0d2" d="M 959.5,97.5 C 1037.5,97.3333 1115.5,97.5 1193.5,98C 1223.96,105.079 1240.3,124.246 1242.5,155.5C 1242.16,162.889 1241.33,170.222 1240,177.5C 1200.2,324.358 1160.87,471.358 1122,618.5C 1111.36,651.812 1090.53,676.645 1059.5,693C 1051.06,696.592 1042.39,699.592 1033.5,702C 992.522,703.14 951.522,703.64 910.5,703.5C 870.796,703.652 831.13,703.152 791.5,702C 756.32,689.497 741.82,664.664 748,627.5C 754.894,599.59 762.56,571.923 771,544.5C 773.264,541.567 776.098,539.4 779.5,538C 817.167,537.333 854.833,537.333 892.5,538C 893.931,538.465 895.097,539.299 896,540.5C 896.667,543.167 896.667,545.833 896,548.5C 887.82,575.719 880.653,603.219 874.5,631C 874.71,642.105 879.71,650.105 889.5,655C 901.446,656.125 913.446,656.625 925.5,656.5C 938.535,656.593 951.535,656.093 964.5,655C 980.983,649.21 990.816,637.71 994,620.5C 1011.65,555.915 1028.65,491.249 1045,426.5C 1044.5,426 1044,425.5 1043.5,425C 985.135,424.976 926.802,424.31 868.5,423C 848.136,417.746 833.636,405.579 825,386.5C 821.308,373.66 820.641,360.66 823,347.5C 838.714,287.308 855.047,227.308 872,167.5C 885.557,138.943 906.724,118.109 935.5,105C 943.425,101.859 951.425,99.3591 959.5,97.5 Z M 1031.5,148.5 C 1018.1,151.384 1008.26,159.051 1002,171.5C 985.324,231.362 969.157,291.362 953.5,351.5C 954.155,361.007 958.822,367.507 967.5,371C 997.125,372.46 1026.79,372.96 1056.5,372.5C 1073.19,308.062 1090.36,243.728 1108,179.5C 1109.44,174.238 1109.77,168.904 1109,163.5C 1106.6,155.1 1101.1,150.267 1092.5,149C 1072.17,148.5 1051.84,148.333 1031.5,148.5 Z"/></g>
<g><path style="opacity:1" fill="#cfd0d2" d="M 1433.5,97.5 C 1500.52,97.0313 1567.52,97.5313 1634.5,99C 1663.31,106.145 1682.15,123.978 1691,152.5C 1693.15,167.542 1692.81,182.542 1690,197.5C 1653.53,331.696 1617.53,466.03 1582,600.5C 1573.66,627.847 1558.49,650.68 1536.5,669C 1520.34,682.917 1502,692.917 1481.5,699C 1474.62,700.902 1467.62,702.236 1460.5,703C 1397.5,703.667 1334.5,703.667 1271.5,703C 1235.3,696.133 1213.8,674.633 1207,638.5C 1205.39,622.815 1207.06,607.481 1212,592.5C 1247,461.833 1282,331.167 1317,200.5C 1327.73,168.431 1346.9,142.598 1374.5,123C 1392.31,110.091 1411.98,101.591 1433.5,97.5 Z M 1495.5,149.5 C 1473.02,155.807 1458.19,170.14 1451,192.5C 1412.54,335.021 1374.7,477.688 1337.5,620.5C 1338.12,634.605 1344.79,644.439 1357.5,650C 1372.45,651.6 1387.45,651.934 1402.5,651C 1424.12,646.048 1438.95,633.214 1447,612.5C 1485,470.5 1523,328.5 1561,186.5C 1561.67,181.833 1561.67,177.167 1561,172.5C 1558.24,160.742 1551.07,153.242 1539.5,150C 1524.84,149.5 1510.17,149.333 1495.5,149.5 Z"/></g>
<g><path style="opacity:0.957" fill="#58575d" d="M 567.5,101.5 C 564.859,112.199 562.026,122.866 559,133.5C 558.421,137.203 558.588,140.869 559.5,144.5C 553.368,145.199 547.368,146.533 541.5,148.5C 539.943,131.723 533.276,117.389 521.5,105.5C 536.67,102.514 552.004,101.18 567.5,101.5 Z"/></g>
<g><path style="opacity:0.957" fill="#58575d" d="M 506.5,107.5 C 509.928,107.547 512.928,108.713 515.5,111C 527.242,121.559 532.742,134.726 532,150.5C 520.009,155.078 508.175,160.078 496.5,165.5C 492.46,146.217 481.794,132.051 464.5,123C 478.281,116.93 492.281,111.763 506.5,107.5 Z"/></g>
<g><path style="opacity:0.957" fill="#58585d" d="M 451.5,128.5 C 467.958,131.454 479.124,140.788 485,156.5C 486.325,160.8 487.492,165.134 488.5,169.5C 475.812,176.508 463.812,184.508 452.5,193.5C 443.069,172.248 426.736,160.414 403.5,158C 418.35,146.321 434.35,136.487 451.5,128.5 Z"/></g>
<g><path style="opacity:0.881" fill="#060606" d="M 1027.5,144.5 C 1049.84,144.333 1072.17,144.5 1094.5,145C 1106.86,147.84 1113.53,155.673 1114.5,168.5C 1096.86,237.267 1078.69,305.934 1060,374.5C 1059.5,375 1059,375.5 1058.5,376C 1028.17,376.667 997.833,376.667 967.5,376C 956.24,372.058 950.24,364.058 949.5,352C 949.817,347.08 950.651,342.246 952,337.5C 967.205,281.147 982.538,224.813 998,168.5C 1004.81,156.545 1014.64,148.545 1027.5,144.5 Z M 1031.5,148.5 C 1018.1,151.384 1008.26,159.051 1002,171.5C 985.324,231.362 969.157,291.362 953.5,351.5C 954.155,361.007 958.822,367.507 967.5,371C 997.125,372.46 1026.79,372.96 1056.5,372.5C 1073.19,308.062 1090.36,243.728 1108,179.5C 1109.44,174.238 1109.77,168.904 1109,163.5C 1106.6,155.1 1101.1,150.267 1092.5,149C 1072.17,148.5 1051.84,148.333 1031.5,148.5 Z"/></g>
<g><path style="opacity:0.858" fill="#070707" d="M 1496.5,144.5 C 1509.5,144.333 1522.5,144.5 1535.5,145C 1552.75,146.919 1562.92,156.419 1566,173.5C 1566.67,177.167 1566.67,180.833 1566,184.5C 1527.41,329.598 1488.41,474.598 1449,619.5C 1439.93,637.901 1425.43,649.734 1405.5,655C 1388.46,655.927 1371.46,655.593 1354.5,654C 1342.81,648.618 1335.97,639.451 1334,626.5C 1333.33,621.5 1333.33,616.5 1334,611.5C 1371.67,470.833 1409.33,330.167 1447,189.5C 1452.74,172.759 1463.24,159.926 1478.5,151C 1484.43,148.303 1490.43,146.136 1496.5,144.5 Z M 1495.5,149.5 C 1473.02,155.807 1458.19,170.14 1451,192.5C 1412.54,335.021 1374.7,477.688 1337.5,620.5C 1338.12,634.605 1344.79,644.439 1357.5,650C 1372.45,651.6 1387.45,651.934 1402.5,651C 1424.12,646.048 1438.95,633.214 1447,612.5C 1485,470.5 1523,328.5 1561,186.5C 1561.67,181.833 1561.67,177.167 1561,172.5C 1558.24,160.742 1551.07,153.242 1539.5,150C 1524.84,149.5 1510.17,149.333 1495.5,149.5 Z"/></g>
<g><path style="opacity:0.887" fill="#56565b" d="M 399.5,147.5 C 400.552,147.351 401.552,147.517 402.5,148C 391.063,157.434 380.23,167.601 370,178.5C 364.708,175.104 359.208,172.104 353.5,169.5C 366.854,157.821 382.188,150.488 399.5,147.5 Z"/></g>
<g><path style="opacity:0.128" fill="#6f6f6f" d="M 620.5,155.5 C 624.646,154.353 628.98,154.186 633.5,155C 629.179,155.499 624.846,155.666 620.5,155.5 Z"/></g>
<g><path style="opacity:0.086" fill="#9a9a9a" d="M 612.5,156.5 C 613.946,155.387 615.613,155.22 617.5,156C 615.866,156.494 614.199,156.66 612.5,156.5 Z"/></g>
<g><path style="opacity:0.008" fill="#4b4b4b" d="M 643.5,156.5 C 644.251,155.427 645.251,155.26 646.5,156C 645.552,156.483 644.552,156.649 643.5,156.5 Z"/></g>
<g><path style="opacity:0.004" fill="#aaaaaa" d="M 608.5,157.5 C 608.897,156.475 609.563,156.308 610.5,157C 609.906,157.464 609.239,157.631 608.5,157.5 Z"/></g>
<g><path style="opacity:0.024" fill="#575757" d="M 648.5,157.5 C 649.601,156.402 650.934,156.235 652.5,157C 651.207,157.49 649.873,157.657 648.5,157.5 Z"/></g>
<g><path style="opacity:0.149" fill="#8a8a8a" d="M 653.5,158.5 C 654.251,157.427 655.251,157.26 656.5,158C 655.552,158.483 654.552,158.649 653.5,158.5 Z"/></g>
<g><path style="opacity:0.958" fill="#58575d" d="M 393.5,165.5 C 419.259,164.356 436.592,175.69 445.5,199.5C 434.809,209.024 424.976,219.357 416,230.5C 405.127,207.312 386.96,197.478 361.5,201C 371.264,188.4 381.93,176.567 393.5,165.5 Z"/></g>
<g><path style="opacity:0.067" fill="#8e8f8e" d="M 647.5,175.5 C 648.833,176.167 648.833,176.167 647.5,175.5 Z"/></g>
<g><path style="opacity:0.137" fill="#848484" d="M 649.5,177.5 C 649.897,176.475 650.563,176.308 651.5,177C 650.906,177.464 650.239,177.631 649.5,177.5 Z"/></g>
<g><path style="opacity:0.93" fill="#57565c" d="M 343.5,177.5 C 351.504,176.916 358.504,179.249 364.5,184.5C 355.419,195.573 346.752,206.906 338.5,218.5C 335.627,217.225 332.627,216.392 329.5,216C 323.167,215.667 316.833,215.333 310.5,215C 320.22,201.442 331.22,188.942 343.5,177.5 Z"/></g>
<g><path style="opacity:0.928" fill="#57575c" d="M 458.5,198.5 C 464.855,210.606 467.355,223.606 466,237.5C 463.942,246.79 458.109,251.123 448.5,250.5C 449.231,238.048 446.897,226.214 441.5,215C 446.997,209.337 452.663,203.837 458.5,198.5 Z"/></g>
<g><path style="opacity:0.96" fill="#59585e" d="M 363.5,208.5 C 386.856,206.003 402.189,215.836 409.5,238C 405.818,244.521 401.985,251.021 398,257.5C 376.23,258.229 354.397,258.895 332.5,259.5C 330.5,259.167 328.5,258.833 326.5,258.5C 333.567,242.622 342.067,227.622 352,213.5C 355.723,211.324 359.556,209.657 363.5,208.5 Z"/></g>
<g><path style="opacity:0.008" fill="#cfd0cf" d="M 801.5,214.5 C 800.833,213.167 800.833,213.167 801.5,214.5 Z"/></g>
<g><path style="opacity:0.051" fill="#bfc0bf" d="M 801.5,214.5 C 802.167,214.5 802.5,214.833 802.5,215.5C 802.167,215.167 801.833,214.833 801.5,214.5 Z"/></g>
<g><path style="opacity:0.125" fill="#9fa09f" d="M 802.5,215.5 C 803.167,215.5 803.5,215.833 803.5,216.5C 803.167,216.167 802.833,215.833 802.5,215.5 Z"/></g>
<g><path style="opacity:0.145" fill="#6f706f" d="M 803.5,216.5 C 804.167,216.5 804.5,216.833 804.5,217.5C 804.167,217.167 803.833,216.833 803.5,216.5 Z"/></g>
<g><path style="opacity:0.086" fill="#b5b5b5" d="M 627.5,216.5 C 628.525,216.897 628.692,217.563 628,218.5C 627.536,217.906 627.369,217.239 627.5,216.5 Z"/></g>
<g><path style="opacity:0.129" fill="#5e5f5e" d="M 804.5,217.5 C 805.167,217.5 805.5,217.833 805.5,218.5C 805.167,218.167 804.833,217.833 804.5,217.5 Z"/></g>
<g><path style="opacity:0.024" fill="#2f302f" d="M 805.5,218.5 C 806.833,219.167 806.833,219.167 805.5,218.5 Z"/></g>
<g><path style="opacity:0.043" fill="#d0d1d0" d="M 807.5,221.5 C 806.833,220.167 806.833,220.167 807.5,221.5 Z"/></g>
<g><path style="opacity:0.078" fill="#939393" d="M 610.5,218.5 C 611.598,219.601 611.765,220.934 611,222.5C 610.51,221.207 610.343,219.873 610.5,218.5 Z"/></g>
<g><path style="opacity:0.137" fill="#9fa09f" d="M 807.5,221.5 C 808.167,221.5 808.5,221.833 808.5,222.5C 808.167,222.167 807.833,221.833 807.5,221.5 Z"/></g>
<g><path style="opacity:0.129" fill="#5f605f" d="M 808.5,222.5 C 809.167,222.5 809.5,222.833 809.5,223.5C 809.167,223.167 808.833,222.833 808.5,222.5 Z"/></g>
<g><path style="opacity:0.943" fill="#57575c" d="M 314.5,222.5 C 319.536,222.588 324.536,223.088 329.5,224C 331.619,224.098 333.286,224.931 334.5,226.5C 327.719,237.728 321.719,249.395 316.5,261.5C 304.372,266.101 292.372,271.101 280.5,276.5C 280.167,276.167 279.833,275.833 279.5,275.5C 285.85,257.633 294.184,240.799 304.5,225C 307.952,224.115 311.286,223.282 314.5,222.5 Z"/></g>
<g><path style="opacity:0.086" fill="#949494" d="M 628.5,220.5 C 629.598,221.601 629.765,222.934 629,224.5C 628.51,223.207 628.343,221.873 628.5,220.5 Z"/></g>
<g><path style="opacity:0.067" fill="#3f403f" d="M 809.5,223.5 C 810.833,224.167 810.833,224.167 809.5,223.5 Z"/></g>
<g><path style="opacity:0.024" fill="#c0c1c0" d="M 565.5,224.5 C 566.833,225.167 566.833,225.167 565.5,224.5 Z"/></g>
<g><path style="opacity:0.047" fill="#cfd0cf" d="M 811.5,226.5 C 810.833,225.167 810.833,225.167 811.5,226.5 Z"/></g>
<g><path style="opacity:0.137" fill="#9fa09f" d="M 811.5,226.5 C 812.167,226.5 812.5,226.833 812.5,227.5C 812.167,227.167 811.833,226.833 811.5,226.5 Z"/></g>
<g><path style="opacity:0.129" fill="#717171" d="M 629.5,226.5 C 630.598,227.601 630.765,228.934 630,230.5C 629.51,229.207 629.343,227.873 629.5,226.5 Z"/></g>
<g><path style="opacity:0.129" fill="#5f605f" d="M 812.5,227.5 C 813.167,227.5 813.5,227.833 813.5,228.5C 813.167,228.167 812.833,227.833 812.5,227.5 Z"/></g>
<g><path style="opacity:0.047" fill="#969696" d="M 813.5,228.5 C 814.338,228.842 814.672,229.508 814.5,230.5C 813.662,230.158 813.328,229.492 813.5,228.5 Z"/></g>
<g><path style="opacity:0.137" fill="#9e9f9e" d="M 814.5,230.5 C 815.167,230.5 815.5,230.833 815.5,231.5C 815.167,231.167 814.833,230.833 814.5,230.5 Z"/></g>
<g><path style="opacity:0.129" fill="#5e5f5e" d="M 815.5,231.5 C 816.167,231.5 816.5,231.833 816.5,232.5C 816.167,232.167 815.833,231.833 815.5,231.5 Z"/></g>
<g><path style="opacity:0.016" fill="#3f403f" d="M 630.5,232.5 C 631.833,233.167 631.833,233.167 630.5,232.5 Z"/></g>
<g><path style="opacity:0.047" fill="#969696" d="M 816.5,232.5 C 817.338,232.842 817.672,233.508 817.5,234.5C 816.662,234.158 816.328,233.492 816.5,232.5 Z"/></g>
<g><path style="opacity:0.149" fill="#8f908f" d="M 817.5,234.5 C 818.167,234.5 818.5,234.833 818.5,235.5C 818.167,235.167 817.833,234.833 817.5,234.5 Z"/></g>
<g><path style="opacity:0.082" fill="#4f504f" d="M 818.5,235.5 C 819.833,236.167 819.833,236.167 818.5,235.5 Z"/></g>
<g><path style="opacity:0.995" fill="#cccdcf" d="M 464.5,299.5 C 499.818,301.494 535.484,302.16 571.5,301.5C 563.292,314.952 551.626,324.119 536.5,329C 527.979,331.63 519.313,333.63 510.5,335C 495.967,335.808 481.467,335.642 467,334.5C 457.165,335.175 447.332,336.008 437.5,337C 426.548,338.639 417.548,343.639 410.5,352C 387.804,352.089 365.138,352.756 342.5,354C 327.245,355.539 315.078,362.373 306,374.5C 267.246,437.002 229.246,500.002 192,563.5C 182.99,576.036 171.156,584.369 156.5,588.5C 155.82,578.77 156.654,569.103 159,559.5C 167.49,529.029 178.157,499.362 191,470.5C 201.727,446.713 212.727,423.047 224,399.5C 224.333,383.5 224.667,367.5 225,351.5C 233.147,337.518 242.647,324.518 253.5,312.5C 278.164,292.671 306.164,280.171 337.5,275C 360.167,274.333 382.833,274.333 405.5,275C 420.237,274.966 434.571,277.3 448.5,282C 456.511,285.506 461.844,291.339 464.5,299.5 Z M 371.5,324.5 C 378.141,324.639 380.974,327.972 380,334.5C 376.294,339.268 372.294,339.601 368,335.5C 366.518,330.774 367.685,327.107 371.5,324.5 Z M 297.5,340.5 C 305.018,340.887 307.518,344.554 305,351.5C 299.023,356.102 294.856,354.769 292.5,347.5C 293.06,344.288 294.727,341.955 297.5,340.5 Z M 252.5,410.5 C 259.417,410.975 261.917,414.642 260,421.5C 255.522,425.731 251.522,425.398 248,420.5C 246.571,415.783 248.071,412.45 252.5,410.5 Z M 213.5,474.5 C 220.193,474.685 223.026,478.019 222,484.5C 215.978,490.369 211.478,489.369 208.5,481.5C 209.065,478.284 210.732,475.951 213.5,474.5 Z"/></g>
<g><path style="opacity:0.012" fill="#3f403f" d="M 783.5,298.5 C 784.525,298.897 784.692,299.563 784,300.5C 783.536,299.906 783.369,299.239 783.5,298.5 Z"/></g>
<g><path style="opacity:0.549" fill="#868688" d="M 464.5,299.5 C 500.264,300.16 535.931,300.827 571.5,301.5C 535.484,302.16 499.818,301.494 464.5,299.5 Z"/></g>
<g><path style="opacity:0.071" fill="#797979" d="M 813.5,303.5 C 814.598,304.601 814.765,305.934 814,307.5C 813.51,306.207 813.343,304.873 813.5,303.5 Z"/></g>
<g><path style="opacity:0.098" fill="#717171" d="M 801.5,309.5 C 802.598,310.601 802.765,311.934 802,313.5C 801.51,312.207 801.343,310.873 801.5,309.5 Z"/></g>
<g><path style="opacity:0.047" fill="#3f403f" d="M 783.5,311.5 C 784.648,315.981 784.815,320.648 784,325.5C 783.501,320.845 783.334,316.179 783.5,311.5 Z"/></g>
<g><path style="opacity:0.098" fill="#6e6e6e" d="M 812.5,310.5 C 813.598,311.601 813.765,312.934 813,314.5C 812.51,313.207 812.343,311.873 812.5,310.5 Z"/></g>
<g><path style="opacity:0.039" fill="#7f7f7f" d="M 802.5,315.5 C 803.598,316.601 803.765,317.934 803,319.5C 802.51,318.207 802.343,316.873 802.5,315.5 Z"/></g>
<g><path style="opacity:0.102" fill="#6b6b6b" d="M 811.5,317.5 C 812.573,318.251 812.74,319.251 812,320.5C 811.517,319.552 811.351,318.552 811.5,317.5 Z"/></g>
<g><path style="opacity:0.071" fill="#535353" d="M 803.5,321.5 C 804.573,322.251 804.74,323.251 804,324.5C 803.517,323.552 803.351,322.552 803.5,321.5 Z"/></g>
<g><path style="opacity:0.118" fill="#838383" d="M 793.5,322.5 C 794.573,323.251 794.74,324.251 794,325.5C 793.517,324.552 793.351,323.552 793.5,322.5 Z"/></g>
<g><path style="opacity:0.888" fill="#7a7b7d" d="M 573.5,311.5 C 574.097,311.735 574.43,312.235 574.5,313C 566.933,328.562 554.933,339.229 538.5,345C 533.228,346.869 527.894,348.535 522.5,350C 488.873,351.632 455.206,351.965 421.5,351C 427.966,347.067 434.966,344.734 442.5,344C 460.816,342.22 479.149,342.053 497.5,343.5C 522.163,343.222 544.496,336.056 564.5,322C 568.107,318.902 571.107,315.402 573.5,311.5 Z"/></g>
<g><path style="opacity:0.035" fill="#8a8a8a" d="M 816.5,339.5 C 817.525,339.897 817.692,340.563 817,341.5C 816.536,340.906 816.369,340.239 816.5,339.5 Z"/></g>
<g><path style="opacity:0.017" fill="#3f3f3f" d="M 758.5,358.5 C 762.981,357.352 767.648,357.185 772.5,358C 767.845,358.499 763.179,358.666 758.5,358.5 Z"/></g>
<g><path style="opacity:0.063" fill="#7f807f" d="M 793.5,357.5 C 794.634,359.966 794.801,362.633 794,365.5C 793.503,362.854 793.336,360.187 793.5,357.5 Z"/></g>
<g><path style="opacity:0.051" fill="#3f3f3f" d="M 783.5,358.5 C 784.641,361.64 784.808,364.973 784,368.5C 783.502,365.183 783.335,361.85 783.5,358.5 Z"/></g>
<g><path style="opacity:0.992" fill="#bf2e39" d="M 360.5,367.5 C 364.833,367.5 369.167,367.5 373.5,367.5C 373.786,385.715 365.119,392.549 347.5,388C 340.789,384.111 337.789,378.278 338.5,370.5C 345.928,369.216 353.262,368.216 360.5,367.5 Z"/></g>
<g><path style="opacity:0.999" fill="#cfd0d2" d="M 587.5,419.5 C 587.611,420.117 587.944,420.617 588.5,421C 578.464,456.308 568.964,491.808 560,527.5C 558.931,531.567 557.431,535.234 555.5,538.5C 535.55,527.734 517.383,514.4 501,498.5C 498.089,495.01 495.422,491.344 493,487.5C 495.099,474.963 496.599,462.297 497.5,449.5C 498.265,423.998 490.265,401.832 473.5,383C 464.211,380.71 460.378,384.21 462,393.5C 475.83,409.32 482.33,427.82 481.5,449C 480.238,482.84 468.238,512.173 445.5,537C 433.913,541.374 423.246,539.707 413.5,532C 397.936,518.071 386.436,501.237 379,481.5C 368.961,456.808 364.128,431.141 364.5,404.5C 374.864,401.642 382.364,395.308 387,385.5C 389.058,379.767 390.558,373.934 391.5,368C 437.833,367.333 484.167,367.333 530.5,368C 541.833,379.333 553.167,390.667 564.5,402C 571.759,408.433 579.426,414.266 587.5,419.5 Z M 384.5,425.5 C 393.745,424.899 396.411,428.732 392.5,437C 384.246,440.081 380.746,437.248 382,428.5C 383.045,427.627 383.878,426.627 384.5,425.5 Z M 529.5,474.5 C 537.379,474.216 540.212,477.883 538,485.5C 533.568,489.743 529.568,489.41 526,484.5C 524.755,480.235 525.922,476.902 529.5,474.5 Z M 414.5,481.5 C 421.771,481.036 424.604,484.369 423,491.5C 421.179,494.991 418.346,496.157 414.5,495C 410.876,492.839 409.709,489.672 411,485.5C 411.69,483.65 412.856,482.316 414.5,481.5 Z"/></g>
<g><path style="opacity:0.973" fill="#a5a6a8" d="M 321.5,379.5 C 324.657,386.864 329.324,393.364 335.5,399C 341.768,403.478 348.768,405.645 356.5,405.5C 357.045,449.299 369.879,488.966 395,524.5C 401.726,532.902 409.893,539.402 419.5,544C 424.983,545.954 430.649,546.954 436.5,547C 412.386,570.628 386.386,591.794 358.5,610.5C 357.023,613.591 355.356,616.591 353.5,619.5C 351.869,621.297 349.869,622.464 347.5,623C 344.743,628.217 340.41,631.217 334.5,632C 331.803,638.684 326.803,642.351 319.5,643C 299.156,654.591 277.156,660.924 253.5,662C 239.083,663.755 224.749,663.421 210.5,661C 207.618,659.392 204.618,658.059 201.5,657C 197.054,651.716 192.387,646.55 187.5,641.5C 175.382,638.378 167.049,631.044 162.5,619.5C 166.986,621.724 171.319,624.891 175.5,629C 187.486,635.537 199.819,636.203 212.5,631C 217.833,628.333 223.167,625.667 228.5,623C 243.167,613 257.833,603 272.5,593C 277.972,590.715 283.638,590.048 289.5,591C 295.407,592.689 301.074,594.856 306.5,597.5C 312.959,596.592 315.459,592.926 314,586.5C 302.435,575.926 288.935,572.426 273.5,576C 267.933,577.783 262.599,580.117 257.5,583C 245.111,592.388 232.445,601.388 219.5,610C 211.921,614.707 203.754,617.874 195,619.5C 184.188,617.199 176.021,611.199 170.5,601.5C 172.336,600.081 174.336,598.914 176.5,598C 198.877,597.291 210.043,585.791 210,563.5C 246.424,501.64 283.591,440.307 321.5,379.5 Z"/></g>
<g><path style="opacity:0.137" fill="#979797" d="M 771.5,383.5 C 772.251,382.427 773.251,382.26 774.5,383C 773.552,383.483 772.552,383.649 771.5,383.5 Z"/></g>
<g><path style="opacity:0.137" fill="#a0a1a0" d="M 775.5,383.5 C 776.833,384.167 776.833,384.167 775.5,383.5 Z"/></g>
<g><path style="opacity:0.149" fill="#909190" d="M 778.5,385.5 C 777.833,384.167 777.833,384.167 778.5,385.5 Z"/></g>
<g><path style="opacity:0.153" fill="#7c7c7c" d="M 744.5,383.5 C 745.622,385.288 745.789,387.288 745,389.5C 744.505,387.527 744.338,385.527 744.5,383.5 Z"/></g>
<g><path style="opacity:0.047" fill="#cfd0cf" d="M 778.5,385.5 C 779.167,385.5 779.5,385.833 779.5,386.5C 779.167,386.167 778.833,385.833 778.5,385.5 Z"/></g>
<g><path style="opacity:0.047" fill="#cfd0cf" d="M 779.5,386.5 C 780.167,386.5 780.5,386.833 780.5,387.5C 780.167,387.167 779.833,386.833 779.5,386.5 Z"/></g>
<g><path style="opacity:0.153" fill="#7e7e7e" d="M 734.5,384.5 C 735.629,386.628 735.796,388.961 735,391.5C 734.503,389.19 734.337,386.857 734.5,384.5 Z"/></g>
<g><path style="opacity:0.137" fill="#9fa09f" d="M 780.5,387.5 C 781.167,387.5 781.5,387.833 781.5,388.5C 781.167,388.167 780.833,387.833 780.5,387.5 Z"/></g>
<g><path style="opacity:0.067" fill="#3f403f" d="M 781.5,388.5 C 782.833,389.167 782.833,389.167 781.5,388.5 Z"/></g>
<g><path style="opacity:0.016" fill="#7e7e7e" d="M 782.5,390.5 C 783.525,390.897 783.692,391.563 783,392.5C 782.536,391.906 782.369,391.239 782.5,390.5 Z"/></g>
<g><path style="opacity:0.059" fill="#484848" d="M 762.5,393.5 C 764.966,392.366 767.633,392.199 770.5,393C 767.854,393.497 765.187,393.664 762.5,393.5 Z"/></g>
<g><path style="opacity:0.055" fill="#a8a8a8" d="M 743.5,392.5 C 744.573,393.251 744.74,394.251 744,395.5C 743.517,394.552 743.351,393.552 743.5,392.5 Z"/></g>
<g><path style="opacity:0.059" fill="#3f403f" d="M 771.5,394.5 C 772.833,395.167 772.833,395.167 771.5,394.5 Z"/></g>
<g><path style="opacity:0.02" fill="#bebfbe" d="M 772.5,396.5 C 773.833,397.167 773.833,397.167 772.5,396.5 Z"/></g>
<g><path style="opacity:0.153" fill="#767676" d="M 820.5,396.5 C 821.65,401.316 821.816,406.316 821,411.5C 820.501,406.511 820.334,401.511 820.5,396.5 Z"/></g>
<g><path style="opacity:0.153" fill="#858585" d="M 732.5,404.5 C 733.629,406.628 733.796,408.961 733,411.5C 732.503,409.19 732.337,406.857 732.5,404.5 Z"/></g>
<g><path style="opacity:0.008" fill="#3f403f" d="M 742.5,406.5 C 743.833,407.167 743.833,407.167 742.5,406.5 Z"/></g>
<g><path style="opacity:0.153" fill="#7b7b7b" d="M 741.5,410.5 C 742.622,412.288 742.789,414.288 742,416.5C 741.505,414.527 741.338,412.527 741.5,410.5 Z"/></g>
<g><path style="opacity:0.153" fill="#7d7d7d" d="M 727.5,412.5 C 728.634,414.966 728.801,417.633 728,420.5C 727.503,417.854 727.336,415.187 727.5,412.5 Z"/></g>
<g><path style="opacity:0.038" fill="#3f403f" d="M 762.5,416.5 C 763.946,415.387 765.613,415.22 767.5,416C 765.866,416.494 764.199,416.66 762.5,416.5 Z"/></g>
<g><path style="opacity:0.153" fill="#797979" d="M 731.5,413.5 C 732.629,415.628 732.796,417.961 732,420.5C 731.503,418.19 731.337,415.857 731.5,413.5 Z"/></g>
<g><path style="opacity:0.024" fill="#5e5e5e" d="M 782.5,416.5 C 783.525,416.897 783.692,417.563 783,418.5C 782.536,417.906 782.369,417.239 782.5,416.5 Z"/></g>
<g><path style="opacity:0.004" fill="#bfc0bf" d="M 740.5,419.5 C 741.833,420.167 741.833,420.167 740.5,419.5 Z"/></g>
<g><path style="opacity:0.016" fill="#545454" d="M 739.5,431.5 C 740.525,431.897 740.692,432.563 740,433.5C 739.536,432.906 739.369,432.239 739.5,431.5 Z"/></g>
<g><path style="opacity:0.086" fill="#bfc0bf" d="M 722.5,451.5 C 723.833,452.167 723.833,452.167 722.5,451.5 Z"/></g>
<g><path style="opacity:0.971" fill="#a1a2a4" d="M 554.5,545.5 C 552.101,556.443 549.101,567.11 545.5,577.5C 533.556,567.326 522.723,555.992 513,543.5C 504,531.509 498.333,518.175 496,503.5C 513.148,520.82 532.648,534.82 554.5,545.5 Z"/></g>
<g><path style="opacity:0.991" fill="#7f8082" d="M 541.5,593.5 C 532.979,626.917 524.146,660.25 515,693.5C 514.21,698.962 515.71,703.628 519.5,707.5C 462.85,697.67 412.85,674.17 369.5,637C 366.462,634.297 363.795,631.297 361.5,628C 388.434,609.691 414.101,589.691 438.5,568C 455.33,552.182 469.497,534.349 481,514.5C 485.833,528.501 492.5,541.501 501,553.5C 513.039,568.373 526.539,581.706 541.5,593.5 Z"/></g>
<g><path style="opacity:0.004" fill="#c9cbcc" d="M 683.5,576.5 C 684.833,577.167 684.833,577.167 683.5,576.5 Z"/></g>
<g><path style="opacity:0.004" fill="#5f605f" d="M 353.5,643.5 C 352.833,642.167 352.833,642.167 353.5,643.5 Z"/></g>
<g><path style="opacity:0.016" fill="#2f302f" d="M 353.5,643.5 C 354.167,643.5 354.5,643.833 354.5,644.5C 354.167,644.167 353.833,643.833 353.5,643.5 Z"/></g>
<g><path style="opacity:0.024" fill="#2f302f" d="M 354.5,644.5 C 355.167,644.5 355.5,644.833 355.5,645.5C 355.167,645.167 354.833,644.833 354.5,644.5 Z"/></g>
<g><path style="opacity:0.024" fill="#2f302f" d="M 355.5,645.5 C 356.167,645.5 356.5,645.833 356.5,646.5C 356.167,646.167 355.833,645.833 355.5,645.5 Z"/></g>
<g><path style="opacity:0.02" fill="#2f302f" d="M 356.5,646.5 C 357.167,646.5 357.5,646.833 357.5,647.5C 357.167,647.167 356.833,646.833 356.5,646.5 Z"/></g>
<g><path style="opacity:0.008" fill="#2e2f2e" d="M 357.5,647.5 C 358.167,647.5 358.5,647.833 358.5,648.5C 358.167,648.167 357.833,647.833 357.5,647.5 Z"/></g>
<g><path style="opacity:0.008" fill="#4f504f" d="M 358.5,648.5 C 359.833,649.167 359.833,649.167 358.5,648.5 Z"/></g>
<g><path style="opacity:0.027" fill="#9a9b9d" d="M 317.5,661.5 C 318.522,662.892 318.189,664.225 316.5,665.5C 316.167,665.167 315.833,664.833 315.5,664.5C 316.193,663.482 316.859,662.482 317.5,661.5 Z"/></g>
<g><path style="opacity:0.017" fill="#a6a8a9" d="M 300.5,666.5 C 304.893,666.457 305.226,666.957 301.5,668C 294.601,669.938 287.601,670.938 280.5,671C 287.185,669.033 293.852,667.533 300.5,666.5 Z"/></g>
<g><path style="opacity:0.043" fill="#b9b9b9" d="M 358.5,671.5 C 359.525,671.897 359.692,672.563 359,673.5C 358.536,672.906 358.369,672.239 358.5,671.5 Z"/></g>
<g><path style="opacity:0.078" fill="#949494" d="M 357.5,674.5 C 358.525,674.897 358.692,675.563 358,676.5C 357.536,675.906 357.369,675.239 357.5,674.5 Z"/></g>
<g><path style="opacity:0.021" fill="#4c4c4c" d="M 559.5,728.5 C 563.311,727.355 567.311,727.188 571.5,728C 567.514,728.499 563.514,728.666 559.5,728.5 Z"/></g>
<g><path style="opacity:0.02" fill="#a6a8a9" d="M 277.5,742.5 C 281.861,741.237 286.194,741.737 290.5,744C 286.217,743.546 281.883,743.046 277.5,742.5 Z"/></g>
<g><path style="opacity:0.075" fill="#7e7f7e" d="M 357.5,769.5 C 358.833,770.167 358.833,770.167 357.5,769.5 Z"/></g>
<g><path style="opacity:0.145" fill="#6f706f" d="M 356.5,771.5 C 357.833,772.167 357.833,772.167 356.5,771.5 Z"/></g>
<g><path style="opacity:0.012" fill="#8f908f" d="M 541.5,773.5 C 540.833,772.167 540.833,772.167 541.5,773.5 Z"/></g>
<g><path style="opacity:0.118" fill="#afb0af" d="M 355.5,773.5 C 356.833,774.167 356.833,774.167 355.5,773.5 Z"/></g>
<g><path style="opacity:0.012" fill="#505150" d="M 541.5,773.5 C 542.833,774.167 542.833,774.167 541.5,773.5 Z"/></g>
<g><path style="opacity:0.106" fill="#4e4f4e" d="M 355.5,774.5 C 354.833,775.167 354.833,775.167 355.5,774.5 Z"/></g>
<g><path style="opacity:0.024" fill="#2e2f2e" d="M 354.5,775.5 C 353.833,776.167 353.833,776.167 354.5,775.5 Z"/></g>
<g><path style="opacity:0.047" fill="#cfd0cf" d="M 352.5,777.5 C 353.833,778.167 353.833,778.167 352.5,777.5 Z"/></g>
<g><path style="opacity:0.024" fill="#2f302f" d="M 350.5,778.5 C 351.833,779.167 351.833,779.167 350.5,778.5 Z"/></g>
<g><path style="opacity:0.051" fill="#6e6f6e" d="M 350.5,779.5 C 349.833,780.167 349.833,780.167 350.5,779.5 Z"/></g>
<g><path style="opacity:0.012" fill="#5f605f" d="M 548.5,779.5 C 549.833,780.167 549.833,780.167 548.5,779.5 Z"/></g>
<g><path style="opacity:0.078" fill="#5f605f" d="M 551.5,781.5 C 550.833,780.167 550.833,780.167 551.5,781.5 Z"/></g>
<g><path style="opacity:0.004" fill="#606060" d="M 551.5,781.5 C 552.525,781.897 552.692,782.563 552,783.5C 551.536,782.906 551.369,782.239 551.5,781.5 Z"/></g>
</svg>
